<?xml version="1.0" standalone="no"?>
<!DOCTYPE svg PUBLIC "-//W3C//DTD SVG 1.1//EN" "http://www.w3.org/Graphics/SVG/1.1/DTD/svg11.dtd" >
<svg xmlns="http://www.w3.org/2000/svg">
<metadata>Generated by IcoMoon</metadata>
<defs>
<font id="icon_font_bc" horiz-adv-x="1024">
<font-face units-per-em="1024" ascent="960" descent="-64" />
<missing-glyph horiz-adv-x="1024" />
<glyph unicode="&#x20;" horiz-adv-x="512" d="" />
<glyph unicode="&#xe900;" glyph-name="advertencia" d="M547.2 102.4c0-26.51-21.49-48-48-48v0c-26.51 0-48 21.49-48 48v0c0 26.51 21.49 48 48 48v0c26.51 0 48-21.49 48-48v0zM499.2 224c-22.4 0-41.6 19.2-41.6 41.6v380.8c0 22.4 19.2 41.6 41.6 41.6s44.8-19.2 44.8-41.6v-380.8c0-22.4-19.2-41.6-44.8-41.6zM998.4 192l-400 691.2c-41.6 70.4-144 70.4-185.6 0l-400-691.2c-41.6-70.4 9.6-160 92.8-160h800c83.2 0 134.4 89.6 92.8 160z" />
<glyph unicode="&#xe901;" glyph-name="icon_cambiar_cuotas-2" d="M746.667 704c-17.067 0-29.867-4.267-42.667-12.8v55.467c0 46.933-38.4 85.333-85.333 85.333-17.067 0-34.133-4.267-46.933-12.8-17.067 42.667-64 68.267-106.667 51.2-25.6-8.533-42.667-29.867-51.2-51.2-17.067 8.533-34.133 12.8-51.2 12.8-46.933 0-85.333-38.4-85.333-85.333v-136.533c-12.8 4.267-29.867 8.533-42.667 8.533h-42.667v-298.667c0-166.4 132.267-298.667 298.667-298.667h42.667c166.4 0 298.667 132.267 298.667 298.667v298.667c0 46.933-38.4 85.333-85.333 85.333zM576 618.667v128c0 25.6 17.067 42.667 42.667 42.667s42.667-17.067 42.667-42.667v-192c-21.333 25.6-51.2 42.667-85.333 55.467v8.533zM448 746.667v42.667c0 25.6 17.067 42.667 42.667 42.667s42.667-17.067 42.667-42.667v-170.667h-21.333c-21.333 0-42.667-4.267-64-8.533v136.533zM512 576c76.8 4.267 140.8-51.2 149.333-128-8.533-76.8-72.533-132.267-149.333-128-76.8-4.267-140.8 51.2-149.333 128 8.533 76.8 72.533 132.267 149.333 128zM657.067 337.067c-17.067-64-76.8-106.667-145.067-102.4-68.267-4.267-128 38.4-145.067 102.4 81.067-81.067 209.067-81.067 290.133 0 0 0 0 0 0 0zM320 746.667c0 25.6 17.067 42.667 42.667 42.667s42.667-17.067 42.667-42.667v-157.867c-21.333-12.8-38.4-25.6-55.467-46.933-8.533 17.067-17.067 29.867-34.133 42.667v162.133zM789.333 320c0-140.8-115.2-256-256-256h-42.667c-140.8 0-256 115.2-256 256v256c46.933 0 85.333-38.4 85.333-85.333v-128c4.267-98.133 93.867-174.933 192-170.667 98.133-4.267 187.733 72.533 192 170.667v256c0 25.6 17.067 42.667 42.667 42.667s42.667-17.067 42.667-42.667v-298.667zM512 362.667c51.2-4.267 98.133 34.133 106.667 85.333-8.533 51.2-55.467 89.6-106.667 85.333-51.2 4.267-98.133-34.133-106.667-85.333 8.533-51.2 55.467-89.6 106.667-85.333zM512 490.667c34.133 0 64-21.333 64-42.667s-29.867-42.667-64-42.667-64 21.333-64 42.667 29.867 42.667 64 42.667z" />
<glyph unicode="&#xe902;" glyph-name="ok" d="M441.771 175.573l-14.605-18.812-299.166 303.74 30.165 30.165 264.812-260.527 460.522 559.194 30.165-30.165-471.893-583.595z" />
<glyph unicode="&#xe903;" glyph-name="icon_avances" d="M847.085 435.51l48.896 48.928 30.208-30.166-100.438-100.438-100.438 100.438 30.208 30.166 48.896-48.928v12.49c0 164.694-133.971 298.667-298.666 298.667-79.786 0-154.794-31.061-211.2-87.467l-30.165 30.165c64.47 64.469 150.188 99.968 241.366 99.968 188.202 0 341.334-153.132 341.334-341.333v-12.49zM256.001 411.584l-48.917 48.918v-12.502c0-164.694 133.973-298.666 298.667-298.666 79.786 0 154.794 31.059 211.2 87.466l30.166-30.166c-64.47-64.467-150.189-99.968-241.366-99.968-188.203 0-341.334 153.133-341.334 341.334v12.47l-48.917-48.886-30.165 30.166 100.437 100.435 100.395-100.435-30.165-30.166z" />
<glyph unicode="&#xe904;" glyph-name="icon_editar" d="M786.441 765.285c-32.064 32.064-84.053 32.064-116.117 0l-36.881-36.88 116.117-116.116 36.881 36.88c32.064 32.064 32.064 84.051 0 116.116zM260.026 354.987l-38.705-154.82 154.821 38.703 343.249 343.25-116.117 116.116-343.247-343.249zM640.154 795.455c48.725 48.727 127.727 48.727 176.457 0 48.725-48.727 48.725-127.729 0-176.455l-414.477-414.477c-2.734-2.735-6.16-4.672-9.911-5.611l-195.048-48.764c-7.27-1.818-14.96 0.316-20.259 5.615-5.299 5.295-7.429 12.988-5.612 20.258l48.762 195.046c0.938 3.75 2.877 7.177 5.611 9.911l414.476 414.476zM426.667 106.667v42.667h426.667v-42.667h-426.667z" />
<glyph unicode="&#xe905;" glyph-name="calendario" d="M451.2 380.8h128v-128h-128v128zM451.2 572.8h128v-128h-128v128zM256 768c19.2 0 32 12.8 32 32v128c0 19.2-12.8 32-32 32s-32-16-32-32v-128c0-19.2 16-32 32-32zM771.2 768c19.2 0 32 16 32 32v128c0 19.2-12.8 32-32 32s-32-16-32-32v-128c0-19.2 16-32 32-32zM643.2 572.8h128v-128h-128v128zM643.2 380.8h128v-128h-128v128zM256 380.8h128v-128h-128v128zM451.2 201.6h128v-128h-128v128zM643.2 201.6h128v-128h-128v128zM256 201.6h128v-128h-128v128zM864 832h-25.6v-32c0-35.2-28.8-64-64-64s-64 28.8-64 64v32h-390.4v-32c0-35.2-28.8-64-64-64s-64 28.8-64 64v32h-25.6c-38.4 0-70.4-32-70.4-70.4v-755.2c0-38.4 32-70.4 70.4-70.4h697.6c38.4 0 70.4 32 70.4 70.4v755.2c0 38.4-32 70.4-70.4 70.4zM867.2 6.4c0-3.2-3.2-6.4-6.4-6.4h-694.4c-3.2 0-6.4 3.2-6.4 6.4v630.4h707.2v-630.4zM256 572.8h128v-128h-128v128z" />
<glyph unicode="&#xe906;" glyph-name="cancel" d="M1024 841.6l-118.4 118.4-393.6-393.6-393.6 393.6-118.4-118.4 393.6-393.6-393.6-393.6 118.4-118.4 393.6 393.6 393.6-393.6 118.4 118.4-393.6 393.6z" />
<glyph unicode="&#xe907;" glyph-name="editar_aprobar" d="M393.6 38.4l-393.6 393.6 131.2 131.2 262.4-262.4 499.2 499.2 131.2-131.2z" />
<glyph unicode="&#xe908;" glyph-name="checkbox" d="M1024-64h-1024v1024h1024v-1024zM67.2 3.2h886.4v889.6h-886.4v-889.6z" />
<glyph unicode="&#xe909;" d="M1024-64h-1024v1024h1024v-1024z" />
<glyph unicode="&#xe90a;" d="M403.2 204.8c-19.2 0-38.4 6.4-54.4 22.4l-150.4 144c-32 28.8-32 80-3.2 108.8 28.8 32 80 32 108.8 3.2l96-89.6 297.6 307.2c28.8 32 80 32 108.8 3.2 32-28.8 32-80 3.2-108.8l-352-361.6c-12.8-19.2-32-28.8-54.4-28.8z" />
<glyph unicode="&#xe90b;" glyph-name="confirmacion" d="M457.6 246.4c9.6 0 22.4 6.4 28.8 12.8l316.8 355.2c16 16 12.8 41.6-3.2 57.6s-41.6 16-57.6-3.2l-291.2-326.4-172.8 137.6c-19.2 12.8-44.8 9.6-57.6-6.4-12.8-19.2-9.6-44.8 6.4-57.6l204.8-160c9.6-6.4 16-9.6 25.6-9.6zM512-64c-281.6 0-512 230.4-512 512s230.4 512 512 512c281.6 0 512-230.4 512-512s-230.4-512-512-512z" />
<glyph unicode="&#xe90c;" glyph-name="icon_Bolsillos" d="M384 789.333h426.667v-128h-426.667v128zM341.333 789.333v-128h-128v128h128zM213.333 618.667h597.333v-277.333l-298.667-224-298.667 224v277.333zM512 64l341.333 256v512h-682.667v-512l341.333-256zM704 373.333l-76.8-57.604 25.6-34.133 93.867 70.404v117.333h-42.667v-96z" />
<glyph unicode="&#xe90d;" glyph-name="contenedor_paso_a_paso" d="M1020.8 505.6c9.6-32 6.4-60.8-32-73.6-44.8-19.2-76.8-28.8-131.2-51.2-28.8-9.6-54.4-22.4-86.4-32-28.8-12.8-60.8-22.4-96-35.2-134.4-51.2-288-108.8-480-179.2-41.6-12.8-83.2 6.4-99.2 51.2-32 99.2-67.2 198.4-102.4 288-16 41.6 6.4 80 48 89.6 96 28.8 182.4 48 268.8 70.4 83.2 19.2 156.8 38.4 227.2 54.4 140.8 32 233.6 51.2 329.6 67.2 48 9.6 64-12.8 76.8-41.6 28.8-70.4 54.4-137.6 76.8-208z" />
<glyph unicode="&#xe90e;" glyph-name="descargar" d="M915.2 332.8v-313.6h-800v313.6c0 22.4-19.2 41.6-41.6 41.6v0c-22.4 0-41.6-19.2-41.6-41.6v-326.4c0-38.4 32-70.4 70.4-70.4h825.6c38.4 0 70.4 32 70.4 70.4v326.4c0 22.4-19.2 41.6-41.6 41.6v0c-22.4 0-41.6-19.2-41.6-41.6zM502.4 224l-201.6 243.2c0 0-32 28.8 3.2 28.8s112 0 112 0 0 384 0 448c0 0-3.2 16 22.4 16s140.8 0 160 0c19.2 0 19.2-16 19.2-16 0-60.8 0-441.6 0-441.6s64 0 105.6 0c41.6 0 9.6-28.8 9.6-28.8s-169.6-227.2-195.2-249.6c-19.2-19.2-35.2 0-35.2 0z" />
<glyph unicode="&#xe90f;" glyph-name="icon_destino" d="M502.528 102.741l-30.165-30.165-319.361 319.36c-16.128 16.128-25.003 37.547-25.003 60.331 0 22.827 8.875 44.245 25.003 60.331l319.361 319.403 30.165-30.165-319.361-319.403c-2.674-2.675-4.95-5.636-6.797-8.815h722.659v-42.667h-722.673c1.85-3.196 4.13-6.17 6.811-8.849l319.361-319.36z" />
<glyph unicode="&#xe910;" glyph-name="editar_cancelar" d="M892.8 739.2l-89.6 89.6-291.2-291.2-291.2 291.2-89.6-89.6 291.2-291.2-291.2-291.2 89.6-89.6 291.2 291.2 291.2-291.2 89.6 89.6-291.2 291.2z" />
<glyph unicode="&#xe911;" glyph-name="select" horiz-adv-x="1914" d="M1894.431 940.104c-12.259 12.236-29.183 19.803-47.874 19.803s-35.615-7.567-47.875-19.804l0.001 0.001-840.588-842.453-842.453 842.453c-11.038 8.116-24.899 12.989-39.897 12.989-37.428 0-67.769-30.341-67.769-67.769 0-15.468 5.182-29.725 13.904-41.13l-0.12 0.163 886.596-888.461c11.712-12.009 27.947-19.56 45.946-19.895l0.062-0.001c18.679 0.17 35.558 7.734 47.881 19.903l-0.007-0.007 890.327 888.461c12.544 12.116 20.333 29.085 20.333 47.874s-7.789 35.758-20.314 47.855l-0.019 0.018z" />
<glyph unicode="&#xe912;" glyph-name="eliminar" d="M764.8 579.2v-563.2h-486.4v563.2h-80v-576c0-38.4 32-67.2 67.2-67.2h512c38.4 0 70.4 32 70.4 70.4v576h-83.2zM380.8 768c19.2 0 32 12.8 32 32v96h233.6v-96c0-19.2 12.8-32 32-32s32 12.8 32 32v128c0 12.8-9.6 25.6-19.2 28.8-3.2 0-3.2 0-6.4 0s-3.2 0-6.4 0h-297.6c-19.2 0-32-12.8-32-32v-128c0-16 12.8-28.8 32-28.8zM844.8 832h-105.6v-32c0-35.2-28.8-64-64-64s-64 28.8-64 64v32h-169.6v-32c0-35.2-28.8-64-64-64s-64 28.8-64 64v32h-115.2c-38.4 0-70.4-32-70.4-70.4v-121.6h787.2v121.6c0 38.4-32 70.4-70.4 70.4zM467.2 134.4v412.8c0 19.2-12.8 32-32 32s-32-12.8-32-32v-412.8c0-19.2 12.8-32 32-32s32 16 32 32zM649.6 134.4v412.8c0 19.2-12.8 32-32 32s-32-12.8-32-32v-412.8c0-19.2 12.8-32 32-32s32 16 32 32z" />
<glyph unicode="&#xe913;" glyph-name="enviar_correo" d="M323.2 688c38.4 0 99.2 0 99.2 0s0-16 0-41.6c0-76.8 0-185.6 0-243.2 0 0 0-12.8 16-12.8s124.8 0 150.4 0c25.6 0 19.2 16 19.2 16 0 60.8 0 160 0 240 0 28.8 0 44.8 0 44.8s76.8 0 105.6 0 3.2 25.6 3.2 25.6l-188.8 227.2c0 0-16 19.2-32 3.2-22.4-22.4-182.4-236.8-182.4-236.8s-25.6-22.4 9.6-22.4zM896-64h-758.4c-41.6 0-73.6 32-73.6 73.6v505.6c0 38.4 32 73.6 73.6 73.6h185.6v-76.8h-182.4v-64l377.6-236.8 377.6 236.8v64h-185.6v76.8h185.6c41.6 0 73.6-32 73.6-73.6v-505.6c0-41.6-32-73.6-73.6-73.6zM140.8 12.8h752v348.8l-355.2-230.4c-6.4-3.2-16-6.4-22.4-6.4s-16 0-22.4 6.4l-352 230.4v-348.8z" />
<glyph unicode="&#xe914;" glyph-name="error" d="M569.6 448l185.6 185.6c16 16 16 41.6 0 57.6s-41.6 16-57.6 0l-185.6-185.6-185.6 185.6c-16 12.8-41.6 12.8-57.6 0s-16-41.6 0-57.6l185.6-185.6-185.6-185.6c-16-16-16-41.6 0-57.6 6.4-6.4 19.2-12.8 28.8-12.8s19.2 3.2 28.8 12.8l185.6 185.6 185.6-185.6c6.4-6.4 19.2-12.8 28.8-12.8s19.2 3.2 28.8 12.8c16 16 16 41.6 0 57.6zM512-64c-281.6 0-512 230.4-512 512s230.4 512 512 512c281.6 0 512-230.4 512-512s-230.4-512-512-512z" />
<glyph unicode="&#xe915;" glyph-name="historico" d="M848 208h-89.6v105.6c0 19.2-12.8 35.2-28.8 35.2s-28.8-16-28.8-35.2v-137.6c0-19.2 12.8-35.2 28.8-35.2h121.6c16 0 28.8 16 28.8 35.2-3.2 16-16 32-32 32zM755.2 486.4c-134.4 0-240-124.8-240-278.4 0-89.6 38.4-169.6 96-220.8l-25.6-38.4 140.8-9.6-48 153.6-28.8-44.8c-44.8 38.4-73.6 96-73.6 166.4 0 115.2 80 208 182.4 208s182.4-92.8 182.4-208c0-102.4-64-185.6-147.2-204.8l6.4-73.6c112 22.4 198.4 137.6 198.4 272 0 153.6-108.8 278.4-243.2 278.4zM32 684.8h121.6v-137.6h-121.6v137.6zM32 412.8h121.6v-137.6h-121.6v137.6zM32 960h121.6v-137.6h-121.6v137.6zM297.6 547.2h534.4c32 0 60.8 32 60.8 70.4v0c0 38.4-25.6 70.4-60.8 70.4h-534.4c-32 0-60.8-32-60.8-70.4v0c0-38.4 25.6-70.4 60.8-70.4zM297.6 822.4h534.4c32 0 60.8 32 60.8 70.4v0c-3.2 35.2-28.8 67.2-64 67.2h-531.2c-32 0-60.8-32-60.8-70.4v0c0-38.4 25.6-67.2 60.8-67.2zM476.8 412.8h-179.2c-32 0-60.8-32-60.8-70.4v0c0-38.4 25.6-70.4 60.8-70.4h150.4l28.8 140.8z" />
<glyph unicode="&#xe916;" glyph-name="icon_realizar_avances" d="M170.667 149.333v542.165l183.168 183.168h371.499v-470.511c95.859-10.65 170.667-92.177 170.667-190.822 0-105.856-86.144-192-192-192-83.426 0-154.611 53.508-181.030 128h-352.303zM213.333 192h299.844c-0.777 7.006-1.178 14.123-1.178 21.333 0 22.43 3.866 43.972 10.97 64h-266.97v42.667h288.435c30.741 45.837 80.695 77.764 138.231 84.156v427.844h-298.667v-170.667h-170.667v-469.333zM554.667 213.333c0-82.347 66.987-149.333 149.333-149.333s149.333 66.987 149.333 149.333c0 82.347-66.987 149.333-149.333 149.333s-149.333-66.987-149.333-149.333zM243.499 704h97.835v97.835l-97.835-97.835zM640 661.333v42.667h-213.333v-42.667h213.333zM256 533.333v42.667h384v-42.667h-384zM640 405.333v42.667h-384v-42.667h384zM640 213.333c0 35.285 28.715 64 64 64s64-28.715 64-64c0-35.285-28.715-64-64-64s-64 28.715-64 64zM597.333 213.333c0-58.837 47.872-106.667 106.667-106.667s106.667 47.829 106.667 106.667c0 58.837-47.872 106.667-106.667 106.667s-106.667-47.829-106.667-106.667z" />
<glyph unicode="&#xe917;" glyph-name="icon_consulta" d="M682.667 64h-554.667v768h554.667v-88.75c144.401-20.903 255.689-145.519 255.689-295.583v-21.022h0.294v-21.333c0-148.54-110.929-274.769-255.983-295.646v-45.666zM682.667 152.883c121.331 20.454 213.316 127.159 213.316 252.429v21.022h-0.294v21.333c0 141.184-114.816 256-256 256h-256c0-47.061 38.272-85.333 85.333-85.333h128v-21.333c0-82.347 66.987-149.333 149.333-149.333h21.333v-42.667h-21.333c-22.315 0-43.75 3.823-63.689 10.85v-262.967zM639.689 746.334h0.311v42.999h-469.333v-682.667h469.333v330.543c-21.141 14.114-39.334 32.311-53.444 53.457h-373.261v42.709h351.902c-4.745 13.477-8.021 27.638-9.647 42.291h-86.528c-37.982 0-72.155 16.634-95.619 42.999h-160.108v42.667h134.923c-4.66 13.257-7.196 27.505-7.196 42.334v42.667h298.667zM213.295 362.667v42.667h384v-42.667h-384zM597.295 234.667v42.667h-384v-42.667h384z" />
<glyph unicode="&#xe918;" glyph-name="icon_origen" d="M524.501 102.741l30.165-30.165 319.36 319.36c16.128 16.128 25.003 37.547 25.003 60.331 0 22.827-8.875 44.245-25.003 60.331l-319.36 319.403-30.165-30.165 319.36-319.403c2.675-2.675 4.949-5.636 6.797-8.815h-722.658v-42.667h722.671c-1.847-3.196-4.13-6.17-6.81-8.849l-319.36-319.36z" />
<glyph unicode="&#xe919;" d="M1024 448c0-282.77-229.23-512-512-512s-512 229.23-512 512c0 282.77 229.23 512 512 512s512-229.23 512-512z" />
<glyph unicode="&#xe91a;" glyph-name="icon_cambiar" d="M847.083 435.511l48.896 48.926 30.208-30.165-100.437-100.437-100.437 100.437 30.208 30.165 48.896-48.926v12.489c0 164.693-133.973 298.667-298.667 298.667-79.787 0-154.795-31.061-211.2-87.467l-30.165 30.165c64.469 64.469 150.187 99.968 241.365 99.968 188.203 0 341.333-153.131 341.333-341.333v-12.489zM256 411.584l-48.917 48.917v-12.501c0-164.693 133.973-298.667 298.667-298.667 79.787 0 154.795 31.061 211.2 87.467l30.165-30.165c-64.469-64.469-150.187-99.968-241.365-99.968-188.203 0-341.333 153.131-341.333 341.333v12.471l-48.917-48.887-30.165 30.165 100.437 100.437 100.395-100.437-30.165-30.165z" />
<glyph unicode="&#xe91b;" glyph-name="checkbox_active_pru" d="M403.2 204.8c22.4 0 41.6 9.6 54.4 28.8l352 361.6c28.8 28.8 28.8 80-3.2 108.8-28.8 28.8-80 28.8-108.8-3.2l-297.6-307.2-96 89.6c-28.8 28.8-80 28.8-108.8-3.2-28.8-28.8-28.8-80 3.2-108.8l150.4-144c16-16 35.2-22.4 54.4-22.4zM1024-64h-1024v1024h1024z" />
<glyph unicode="&#xe91c;" glyph-name="paginador-adelante-hover" d="M492.458 959.621c-273.981-11.214-491.847-236.044-491.847-511.759 0-282.529 228.767-511.626 511.171-512.161h0.051c0.2 0 0.437 0 0.674 0 282.92 0 512.293 229.256 512.485 512.131v0.018c0 0.004 0 0.009 0 0.014 0 282.859-229.303 512.162-512.162 512.162-7.165 0-14.295-0.147-21.388-0.438l1.015 0.033zM411.991 638.132l302.745-190.281-302.745-190.344v380.625z" />
<glyph unicode="&#xe91d;" glyph-name="paginador-atras-hover" d="M511.833 960c-282.639-0.371-511.642-229.485-511.833-512.131v-0.018c0-0.004 0-0.008 0-0.013 0-282.859 229.303-512.162 512.162-512.162s512.162 229.303 512.162 512.162c0 282.859-229.303 512.162-512.162 512.162-0.115 0-0.231 0-0.346 0h0.018zM611.991 638.132v-380.625l-302.43 190.344 302.43 190.281z" />
<glyph unicode="&#xe91e;" glyph-name="indicador-mensajes" horiz-adv-x="1056" d="M1039.754 956.849c-31.508-6.302-50.412-12.603-78.769-18.905-122.88-28.357-252.062-56.714-396.997-94.523-148.086-37.809-299.323-72.468-469.465-122.88-69.317-22.055-107.126-88.222-81.92-160.689 59.865-157.538 122.88-327.68 176.443-504.123 25.206-75.618 94.523-113.428 166.991-91.372 264.665 97.674 494.671 182.745 683.717 258.363v734.129z" />
<glyph unicode="&#xe91f;" glyph-name="pagar_only" d="M771.2 688c16 0 19.2 19.2 6.4 25.6l-512 240c-32 16-67.2 0-80-32l-179.2-425.6c-12.8-32 0-70.4 32-86.4l102.4-48c12.8-6.4 28.8 3.2 28.8 19.2v179.2c0 70.4 54.4 124.8 118.4 124.8l483.2 3.2zM902.4 646.4h-617.6c-35.2 0-64-28.8-64-67.2v-464c0-35.2 28.8-67.2 64-67.2h83.2c-3.2 12.8-3.2 25.6-3.2 38.4 0 16 0 28.8 3.2 44.8h-67.2v220.8h585.6v-220.8h-67.2c3.2-16 3.2-28.8 3.2-44.8 0-12.8 0-25.6-3.2-38.4h83.2c35.2 0 64 28.8 64 67.2v464c0 35.2-28.8 67.2-64 67.2zM886.4 492.8h-585.6v70.4h585.6v-70.4zM595.2 275.2c-89.6 0-160-76.8-160-169.6s70.4-169.6 160-169.6 160 76.8 160 169.6-73.6 169.6-160 169.6zM640 38.4c-6.4-9.6-16-16-25.6-19.2-3.2 0-6.4-3.2-6.4-9.6s0-9.6 0-16c0-3.2-3.2-6.4-6.4-6.4-6.4 0-9.6 0-16 0-3.2 0-6.4 3.2-6.4 6.4s0 6.4 0 9.6c0 9.6 0 9.6-6.4 9.6-9.6 0-19.2 3.2-25.6 9.6-6.4 3.2-6.4 6.4-6.4 12.8s3.2 12.8 3.2 16c3.2 6.4 3.2 6.4 9.6 3.2 9.6-6.4 19.2-9.6 28.8-9.6 6.4 0 12.8 0 19.2 3.2 12.8 6.4 12.8 19.2 3.2 28.8-3.2 3.2-6.4 6.4-12.8 6.4-9.6 3.2-22.4 9.6-32 16-16 9.6-25.6 22.4-25.6 44.8s12.8 38.4 35.2 44.8c9.6 3.2 9.6 3.2 9.6 12.8 0 3.2 0 6.4 0 9.6 0 6.4 0 9.6 6.4 9.6 3.2 0 3.2 0 6.4 0 12.8 0 12.8 0 12.8-16 0-9.6 0-9.6 9.6-12.8 6.4 0 16-3.2 22.4-6.4 3.2-3.2 6.4-3.2 3.2-9.6 3.2-3.2 0-9.6 0-16-3.2-6.4-3.2-6.4-9.6-3.2-9.6 6.4-22.4 6.4-35.2 6.4-3.2 0-6.4 0-9.6-3.2-9.6-3.2-12.8-16-3.2-25.6 3.2-3.2 9.6-6.4 16-9.6 9.6-3.2 19.2-6.4 25.6-12.8 28.8-12.8 35.2-48 16-73.6z" />
<glyph unicode="&#xe920;" d="M565.895 347.435v-7.276h-107.789v7.545c0 42.561-15.085 58.363-40.020 84.48l-0.078 0.081-3.8 3.988c-23.848 24.845-36.945 57.721-36.945 92.537 0 40.852 18.136 79.037 49.745 104.744s73.189 35.517 114.041 27.028c51.874-10.698 93.373-53.167 103.208-105.661 7.626-41.31-3.449-82.998-30.316-114.284-3.085-3.546-6.052-6.826-8.868-9.935v-0.003l-2.859-3.164c-21.097-23.118-36.32-39.799-36.32-80.082zM431.158 313.212h161.684v34.223c0 29.828 9.779 40.553 29.257 61.917l0.008 0.008 1.029 1.129 0.003 0.005c3.5 3.845 7.227 7.939 11.175 12.501 32.283 37.538 45.568 87.417 36.46 136.839-11.884 63.138-61.79 114.23-124.254 127.138-48.775 10.159-98.6-1.698-136.515-32.525-37.915-30.855-59.688-76.665-59.688-125.656 0-41.795 15.791-81.3 44.382-111.158l3.87-4.007c23.708-24.837 32.59-34.142 32.59-65.921v-34.493zM404.211 528.791h26.947c0 44.571 36.271 80.842 80.842 80.842v26.947c-59.446 0-107.789-48.344-107.789-107.789zM592.842 259.317v26.947h-161.684v-26.947h161.684zM592.842 232.37v-26.947h-161.684v26.947h161.684z" />
<glyph unicode="&#xe921;" d="M1024 448c0-282.77-229.23-512-512-512s-512 229.23-512 512c0 282.77 229.23 512 512 512s512-229.23 512-512z" />
<glyph unicode="&#xe922;" glyph-name="programar" d="M352 576h128v-128h-128v128zM160 768c19.2 0 32 12.8 32 32v128c0 19.2-12.8 32-32 32s-32-12.8-32-32v-128c0-19.2 12.8-32 32-32zM672 768c19.2 0 32 12.8 32 32v128c0 19.2-12.8 32-32 32s-32-12.8-32-32v-128c0-19.2 12.8-32 32-32zM160 384h128v-128h-128v128zM160 204.8h128v-128h-128v128zM160 576h128v-128h-128v128zM512 6.4h-441.6c-3.2 0-6.4 3.2-6.4 6.4v627.2h704v-131.2c22.4 0 44.8-3.2 64-6.4v259.2c0 38.4-32 70.4-70.4 70.4h-25.6v-32c0-35.2-28.8-64-64-64s-64 28.8-64 64v32h-384v-32c0-35.2-28.8-64-64-64s-64 28.8-64 64v32h-25.6c-38.4 0-70.4-32-70.4-70.4v-748.8c0-38.4 32-70.4 70.4-70.4h505.6c-25.6 19.2-44.8 38.4-64 64zM672 492.8v83.2h-128v-128h38.4c25.6 19.2 57.6 35.2 89.6 44.8zM480 323.2v60.8h-128v-128h105.6c6.4 22.4 12.8 44.8 22.4 67.2zM451.2 192c0 6.4 0 9.6 0 12.8h-99.2v-128h121.6c-12.8 35.2-22.4 73.6-22.4 115.2zM1024 192c0-140.8-115.2-256-256-256s-256 115.2-256 256c0 140.8 115.2 256 256 256s256-115.2 256-256zM960 192c0 105.6-86.4 192-192 192s-192-86.4-192-192c0-105.6 86.4-192 192-192s192 86.4 192 192zM864 192h-96v96c0 19.2-12.8 32-32 32s-32-12.8-32-32v-128c0-19.2 12.8-32 32-32h128c19.2 0 32 12.8 32 32s-12.8 32-32 32z" />
<glyph unicode="&#xe923;" glyph-name="icono_puntos" d="M512-64c-281.6 0-512 230.4-512 512s230.4 512 512 512 512-230.4 512-512-230.4-512-512-512zM512 915.2c-256 0-467.2-211.2-467.2-467.2s211.2-467.2 467.2-467.2 467.2 211.2 467.2 467.2-211.2 467.2-467.2 467.2zM512 812.8c-28.8 0-54.4-12.8-73.6-32s-32-48-32-73.6v-64h-96c-16 0-28.8-12.8-28.8-25.6l-41.6-406.4c-3.2-16 12.8-32 28.8-32h489.6c16 0 32 16 28.8 32l-41.6 403.2c0 16-12.8 25.6-28.8 25.6h-96v64c0 28.8-12.8 54.4-32 73.6s-48 35.2-76.8 35.2zM512 768c12.8 0 32-6.4 44.8-19.2s19.2-28.8 19.2-41.6v-64h-128v64c0 12.8 6.4 32 19.2 44.8 12.8 9.6 32 16 44.8 16z" />
<glyph unicode="&#xe924;" glyph-name="radio" d="M512-64c-281.6 0-512 230.4-512 512s230.4 512 512 512 512-230.4 512-512-230.4-512-512-512zM512 915.2c-256 0-467.2-211.2-467.2-467.2s211.2-467.2 467.2-467.2 467.2 211.2 467.2 467.2-211.2 467.2-467.2 467.2z" />
<glyph unicode="&#xe925;" d="M1024 448c0-282.77-229.23-512-512-512s-512 229.23-512 512c0 282.77 229.23 512 512 512s512-229.23 512-512z" />
<glyph unicode="&#xe926;" glyph-name="icon_ver_extractos" d="M256 192v469.333h170.667v170.667h298.667v-597.333c0-23.552-19.157-42.667-42.667-42.667h-426.667zM384 801.835v-97.835h-97.835l97.835 97.835zM213.333 149.333h85.333v-128h469.333c47.061 0 85.333 38.272 85.333 85.333v682.667h-85.333v85.333h-371.499l-183.168-183.168v-542.165zM341.333 64v85.333h341.333c47.061 0 85.333 38.272 85.333 85.333v512h42.667v-640c0-23.552-19.157-42.667-42.667-42.667h-426.667zM682.671 661.333v42.667h-213.333v-42.667h213.333zM298.671 533.333v42.667h384v-42.667h-384zM682.671 405.333v42.667h-384v-42.667h384zM298.671 277.333v42.667h384v-42.667h-384z" />
<glyph unicode="&#xe927;" glyph-name="icon_transferencia" d="M391.814 609.297l0.021-4.072c0.093-18.112 16.377-32.865 36.163-32.763s35.917 15.021 35.823 33.133-16.375 32.865-36.16 32.764c-46.945-0.241-85.515 34.703-85.736 77.674-0.181 35.232 25.338 65.063 60.28 74.856l-0.209 40.59 49.34 0.254 0.209-40.59c35.038-9.433 60.864-39 61.043-74.232l0.021-4.072-49.34-0.253-0.021 4.072c-0.090 18.112-16.375 32.865-36.16 32.763-19.787-0.102-35.918-15.021-35.825-33.133s16.377-32.865 36.162-32.764c46.942 0.241 85.513-34.703 85.734-77.674 0.179-35.232-25.34-65.063-60.279-74.854l0.209-40.593-49.339-0.252-0.209 40.589c-35.041 9.434-60.865 39.001-61.046 74.233l-0.021 4.072 49.339 0.253zM362.998 346.419l350.034 247.081 24.602-34.857-338.764-239.129 283.796-212.847 170.667 597.332-256-80v44.701l243.277 76.023c14.967 4.678 31.296 0.767 42.522-10.186s15.535-27.18 11.226-42.26l-170.662-597.332c-3.861-13.504-14.114-24.243-27.422-28.719-13.312-4.48-27.972-2.121-39.206 6.306l-134.263 100.698-146.253-125.355c-6.326-5.423-15.229-6.669-22.798-3.187s-12.419 11.051-12.419 19.383v245.261l-196.265 147.2c-12.812 9.609-19.164 25.583-16.449 41.365s14.037 28.715 29.323 33.493l98.060 30.642v-44.701l-85.333-26.667 192.33-144.247zM384 277.333v-166.878l103.834 89.003-103.834 77.875z" />
<glyph unicode="&#xe928;" glyph-name="select_bottom" d="M512 678.4l512-742.4h-1024z" />
<glyph unicode="&#xe929;" glyph-name="select_top" d="M512 217.6l-512 742.4h1024z" />
<glyph unicode="&#xe92a;" glyph-name="icon_Solicitud" d="M694.613 192c14.933 25.173 41.813 42.667 73.387 42.667 46.933 0 85.333-38.4 85.333-85.333s-38.4-85.333-85.333-85.333c-46.933 0-85.333 38.4-85.333 85.333h-213.333c0-46.933-38.4-85.333-85.333-85.333s-85.333 38.4-85.333 85.333c0 30.72 16.213 57.173 40.533 72.107l-114.347 534.187c-4.267 19.627-21.76 33.707-41.813 33.707h-55.040v42.667h55.040c39.68 0 75.093-28.16 83.2-67.413l31.573-145.92h88.32c10.667 95.573 91.307 170.667 189.867 170.667s179.2-75.093 189.867-170.667h136.96l-79.787-279.467c-10.24-36.267-43.947-61.867-81.92-61.867h-370.347l9.387-43.093c0.64 0 1.28 0.107 1.92 0.213s1.28 0.213 1.92 0.213c31.147 0 58.453-17.493 73.387-42.667h237.227zM725.333 597.333c0 82.347-66.987 149.333-149.333 149.333s-149.333-66.987-149.333-149.333c0-82.347 66.987-149.333 149.333-149.333s149.333 66.987 149.333 149.333zM576 405.333c-98.56 0-179.2 75.093-189.867 170.667h-79.36l55.040-256h379.307c18.773 0 35.84 12.8 40.96 31.147l64.427 224.853h-80.64c-10.667-95.573-91.307-170.667-189.867-170.667zM341.333 149.333c0-23.467 19.2-42.667 42.667-42.667s42.667 19.2 42.667 42.667c0 23.467-19.2 42.667-42.667 42.667s-42.667-19.2-42.667-42.667zM725.333 149.333c0-23.467 19.2-42.667 42.667-42.667s42.667 19.2 42.667 42.667c0 23.467-19.2 42.667-42.667 42.667s-42.667-19.2-42.667-42.667zM554.667 490.667v85.333h-85.333v42.667h85.333v85.333h42.667v-85.333h85.333v-42.667h-85.333v-85.333h-42.667z" />
<glyph unicode="&#xe92b;" glyph-name="icon_visitanos" d="M213.333 533.333c0 164.693 133.973 298.667 298.667 298.667s298.667-133.973 298.667-298.667c0-232.832-241.835-423.083-298.667-464.555-56.875 41.429-298.667 231.424-298.667 464.555zM500.181 24.917l11.819-7.893 11.819 7.893c13.483 8.96 329.515 222.976 329.515 508.416 0 188.203-153.131 341.333-341.333 341.333s-341.333-153.131-341.333-341.333c0-285.44 316.032-499.456 329.515-508.416zM384 533.333c0 70.571 57.429 128 128 128s128-57.429 128-128c0-70.571-57.429-128-128-128s-128 57.429-128 128zM341.333 533.333c0-94.123 76.544-170.667 170.667-170.667s170.667 76.544 170.667 170.667c0 94.123-76.544 170.667-170.667 170.667s-170.667-76.544-170.667-170.667z" />
<glyph unicode="&#xe92c;" glyph-name="icon_contactanos" d="M896.038 490.667h-42.667v21.333c0 152.917-124.416 277.333-277.333 277.333h-21.333v42.667h21.333c176.469 0 320-143.531 320-320v-21.333zM768.038 490.667h-42.667v21.333c0 82.347-66.987 149.333-149.333 149.333h-21.333v42.667h21.333c105.856 0 192-86.144 192-192v-21.333zM175.499 507.853c-10.027 71.467-4.437 141.739 16.683 208.939 5.632 17.877 22.101 29.867 41.003 29.867h108.288c23.467 0 42.581-19.115 42.581-42.581v-97.92l-85.333-85.333v-8.832c0-152.917 124.416-277.333 277.335-277.333h8.832l85.333 85.333h97.92c23.467 0 42.581-19.115 42.581-42.581v-108.245c0-18.944-12.032-35.413-29.909-41.003-67.157-21.163-137.472-26.795-208.939-16.725-204.631 28.757-367.618 191.787-396.375 396.416zM565.943 69.197c24.96-3.499 49.792-5.248 74.411-5.248 52.181 0 103.509 7.851 153.259 23.509 35.755 11.221 59.776 44.032 59.776 81.707v108.245c0 47.019-38.272 85.248-85.248 85.248h-97.92c-11.264 0-22.229-4.565-30.165-12.501l-72.704-72.661c-122.496 4.48-221.357 103.296-225.837 225.835l72.704 72.661c7.936 7.936 12.503 18.944 12.503 30.165v97.92c0 47.019-38.274 85.248-85.25 85.248h-108.288c-37.632 0-70.485-24.021-81.707-59.733-23.040-73.259-29.141-149.888-18.219-227.669 31.36-223.403 209.28-401.323 432.685-432.725z" />
<glyph unicode="&#xe92d;" glyph-name="icon_seguridad" d="M512 879.36l-341.333-139.52v-255.573c0-174.933 96-334.933 250.027-416.853l91.307-49.067 91.307 48.64c154.027 82.347 250.027 242.347 250.027 417.28v255.573l-341.333 139.52zM810.667 484.267c0-159.147-87.040-304.64-227.84-379.307l-70.827-37.973-70.827 37.973c-140.8 74.667-227.84 220.16-227.84 379.307v226.56l298.667 122.027 298.667-122.027v-226.56zM320 469.333c0-105.813 86.187-192 192-192s192 86.187 192 192c0 105.813-86.187 192-192 192s-192-86.187-192-192zM661.333 469.333c0-82.347-66.987-149.333-149.333-149.333s-149.333 66.987-149.333 149.333c0 82.347 66.987 149.333 149.333 149.333s149.333-66.987 149.333-149.333zM417.708 469.333l30.292 30.293 42.667-42.667 85.333 85.332 30.293-30.292-115.627-115.627-72.958 72.96z" />
<glyph unicode="&#xe92e;" glyph-name="icon_puntosC" d="M170.667 533.333c0 188.16 153.173 341.333 341.333 341.333s341.333-153.173 341.333-341.333c0-188.16-153.173-341.333-341.333-341.333-14.080 0-28.587 0.853-42.667 2.56v-23.893c0-82.347-66.987-149.333-149.333-149.333s-149.333 66.987-149.333 149.333v362.667zM452.267 240.64c19.627-3.84 39.68-5.973 59.733-5.973 164.693 0 298.667 133.973 298.667 298.667s-133.973 298.667-298.667 298.667c-164.693 0-298.667-133.973-298.667-298.667v-362.667c0-58.88 47.787-106.667 106.667-106.667s106.667 47.787 106.667 106.667v75.093l25.6-5.12zM545.28 506.88c13.653 17.067 32 26.455 51.627 26.455 37.12 0 69.12-21.335 83.2-55.895 14.080-34.133 6.4-71.253-19.627-96.853-40.107-39.253-92.587-60.587-148.48-60.587-117.76 0-213.333 95.573-213.333 213.335 0 58.453 25.6 115.2 69.973 156.16 44.8 40.96 103.68 61.44 162.133 56.32 48.64-4.267 94.293-25.173 129.28-59.307 26.453-25.6 34.133-63.147 20.053-97.28-14.080-34.56-46.080-55.893-83.2-55.893-19.627 0-37.973 9.387-52.053 26.453-8.107 10.24-20.053 16.213-32.853 16.213-23.467 0-42.667-19.2-42.667-42.667 0-23.469 19.2-42.669 42.667-42.669 12.8 0 24.747 5.973 33.28 16.213zM512 362.667c44.373 0 86.613 17.067 118.613 48.213 13.653 13.653 17.067 32.427 9.813 50.347-5.973 14.080-20.48 29.44-43.52 29.44-8.533 0-15.36-6.827-18.347-10.667-16.213-20.48-40.533-32-66.56-32-46.933 0-85.333 38.4-85.333 85.335 0 46.933 38.4 85.333 85.333 85.333 26.027 0 50.347-11.52 66.56-32 2.987-4.267 9.387-10.667 18.347-10.667 23.040 0 37.547 15.36 43.52 29.44 7.68 18.347 3.84 37.12-10.24 50.773-28.16 27.307-64.427 43.947-103.253 47.36-4.693 0.427-8.96 0.427-13.653 0.427-41.813 0-83.2-16.213-115.627-46.080-35.84-32.853-56.32-78.080-56.32-124.587 0-94.295 76.373-170.669 170.667-170.669z" />
<glyph unicode="&#xe92f;" glyph-name="icon_bloquear" d="M298.667 533.334v127.999c0 117.632 95.701 213.333 213.333 213.333s213.334-95.701 213.334-213.333v-127.999h85.334v-213.334c0-164.694-133.974-298.666-298.669-298.666-164.691 0-298.666 133.971-298.666 298.666v213.334h85.333zM512 832c-94.122 0-170.666-76.544-170.666-170.667v-127.999h341.334v127.999c0 94.123-76.544 170.667-170.669 170.667zM256.001 490.666v-170.666c0-141.184 114.815-256 255.999-256s256 114.816 256 256v170.666h-511.999zM469.334 362.666c0 23.51 19.158 42.669 42.666 42.669 23.51 0 42.669-19.158 42.669-42.669 0-23.507-19.158-42.666-42.669-42.666-23.507 0-42.666 19.158-42.666 42.666zM533.334 280.032c36.768 9.494 64 42.938 64 82.634 0 47.062-38.272 85.334-85.334 85.334-47.059 0-85.331-38.272-85.331-85.334 0-39.696 27.229-73.139 64-82.634v-88.032h42.666v88.032z" />
<glyph unicode="&#xe930;" glyph-name="icon_arrow_ordenar_2" horiz-adv-x="2219" d="M1223.088 131.22l881.898 828.779 113.681-106.827-881.903-828.779c-125.413-117.857-329.448-117.857-454.699 0l-882.065 828.779 113.675 106.827 882.065-828.779c62.706-58.929 164.482-58.929 227.348 0z" />
<glyph unicode="&#xe931;" d="M520.192-6.656c-265.216 0-480.256 215.040-480.256 480.256s215.040 480.256 480.256 480.256 480.256-215.040 480.256-480.256c0-264.192-216.064-480.256-480.256-480.256zM520.192 925.184c-248.832 0-451.584-202.752-451.584-451.584s202.752-451.584 451.584-451.584 451.584 202.752 451.584 451.584c-1.024 248.832-202.752 451.584-451.584 451.584z" />
<glyph unicode="&#xe932;" d="M771.072 392.704c3.072-10.24 2.048-19.456-10.24-24.576-14.336-6.144-25.6-10.24-43.008-17.408-9.216-3.072-18.432-7.168-28.672-11.264s-20.48-8.192-31.744-12.288c-44.032-17.408-95.232-35.84-157.696-59.392-13.312-4.096-27.648 2.048-31.744 17.408-10.24 32.768-21.504 64.512-33.792 94.208-5.12 13.312 2.048 25.6 15.36 29.696 31.744 9.216 60.416 16.384 88.064 22.528 27.648 7.168 52.224 12.288 74.752 17.408 46.080 10.24 76.8 17.408 108.544 22.528 15.36 3.072 20.48-4.096 24.576-13.312 10.24-19.456 18.432-41.984 25.6-65.536z" />
<glyph unicode="&#xe933;" d="M741.376 573.952c-4.096 8.192-8.192 13.312-24.576 14.336-44.032 1.024-96.256-2.048-174.080-14.336-38.912-6.144-81.92-14.336-126.976-25.6-23.552-6.144-46.080-12.288-69.632-19.456-24.576-7.168-47.104-15.36-69.632-24.576-13.312-5.12-21.504-17.408-19.456-27.648 6.144-24.576 12.288-48.128 19.456-76.8 3.072-12.288 17.408-17.408 31.744-12.288 51.2 19.456 104.448 35.84 153.6 49.152 50.176 13.312 93.184 23.552 132.096 31.744 77.824 17.408 118.784 22.528 159.744 29.696 9.216 2.048 13.312 8.192 9.216 18.432l-21.504 57.344z" />
<glyph unicode="&#xe934;" d="M688.128 669.184c-6.144 10.24-12.288 11.264-19.456 12.288-27.648 4.096-94.208 4.096-149.504-2.048-27.648-2.048-56.32-6.144-87.040-12.288s-61.44-13.312-94.208-22.528c-11.264-3.072-17.408-9.216-13.312-22.528 6.144-17.408 11.264-31.744 17.408-51.2 5.12-13.312 16.384-13.312 27.648-9.216 35.84 10.24 70.656 18.432 104.448 25.6s63.488 11.264 92.16 15.36c57.344 7.168 106.496 8.192 135.168 9.216 6.144 0 10.24 6.144 6.144 13.312l-19.456 44.032z" />
<glyph unicode="&#xe935;" d="M198.656 399.872v0c13.312-6.144 22.528-16.384 23.552-28.672 0-5.12 0-17.408 0-17.408l9.216 16.384c12.288 20.48 38.912 27.648 59.392 15.36l5.12-3.072c18.432-10.24 24.576-33.792 14.336-52.224l2.048 3.072c12.288 20.48 38.912 27.648 59.392 15.36l5.12-3.072c18.432-10.24 24.576-33.792 14.336-52.224l65.536 113.664c12.288 20.48 38.912 27.648 59.392 15.36h1.024c20.48-12.288 27.648-38.912 15.36-59.392l-145.408-250.88c-2.048-4.096 1.024-8.192 5.12-7.168l69.632 18.432c23.552 6.144 48.128-8.192 54.272-31.744l3.072-12.288c6.144-23.552-8.192-48.128-31.744-54.272l-194.56-51.2c-9.216-2.048-18.432-1.024-26.624 3.072v0l-2.048 1.024c-9.216 5.12-22.528 2.048-27.648-7.168l-2.048-4.096c-6.144-11.264-21.504-13.312-34.816-6.144l-146.432 84.992c-13.312 7.168-18.432 22.528-11.264 33.792l14.336 25.6c1.024 1.024 1.024 3.072 0 5.12-8.192 15.36-9.216 33.792-2.048 51.2l95.232 220.16c7.168 18.432 29.696 26.624 49.152 18.432z" />
<glyph unicode="&#xe936;" d="M214.016-58.88c-7.168 0-15.36 2.048-22.528 6.144l-146.432 84.992c-19.456 11.264-27.648 35.84-17.408 53.248l12.288 20.48c-8.192 18.432-8.192 39.936 0 59.392l95.232 220.16c11.264 26.624 43.008 38.912 69.632 27.648v0h1.024c10.24-5.12 19.456-12.288 24.576-21.504 7.168 6.144 15.36 11.264 24.576 13.312 15.36 4.096 30.72 2.048 44.032-6.144l5.12-3.072c11.264-7.168 20.48-17.408 23.552-29.696 2.048 1.024 5.12 2.048 7.168 2.048 15.36 4.096 30.72 2.048 44.032-6.144l5.12-3.072c7.168-4.096 13.312-10.24 17.408-16.384l41.984 71.68c16.384 27.648 52.224 36.864 79.872 21.504 28.672-16.384 37.888-52.224 21.504-79.872l-133.12-230.4 46.080 12.288c31.744 8.192 63.488-10.24 71.68-41.984l3.072-12.288c8.192-31.744-10.24-63.488-41.984-71.68l-194.56-51.2c-11.264-3.072-23.552-2.048-34.816 2.048-1.024 0-3.072 1.024-4.096 1.024l-2.048 1.024c-3.072 2.048-6.144 1.024-7.168-2.048l-2.048-4.096c-6.144-11.264-18.432-17.408-31.744-17.408zM193.536 386.56c-3.072 1.024-6.144 2.048-9.216 2.048-9.216 0-18.432-5.12-21.504-14.336l-96.256-220.16c-5.12-12.288-5.12-26.624 2.048-37.888 3.072-6.144 3.072-13.312 0-19.456l-14.336-25.6c-2.048-3.072 0-9.216 6.144-13.312l146.432-84.992c6.144-3.072 12.288-2.048 14.336 1.024l2.048 4.096c9.216 16.384 30.72 22.528 47.104 13.312 1.024 0 1.024 0 2.048-1.024 4.096-2.048 10.24-4.096 17.408-2.048l194.56 51.2c15.36 4.096 25.6 20.48 21.504 35.84l-4.096 13.312c-4.096 15.36-20.48 25.6-35.84 21.504l-69.632-18.432c-8.192-2.048-15.36 1.024-20.48 7.168s-5.12 15.36-1.024 21.504l146.432 250.88c8.192 13.312 3.072 31.744-10.24 38.912-14.336 8.192-31.744 4.096-39.936-10.24l-65.536-113.664c-4.096-7.168-13.312-9.216-20.48-5.12s-9.216 13.312-5.12 20.48v0c3.072 5.12 4.096 12.288 2.048 18.432s-5.12 11.264-11.264 14.336l-5.12 3.072c-6.144 4.096-14.336 5.12-21.504 3.072s-13.312-7.168-17.408-13.312l-2.048-3.072c-4.096-7.168-13.312-9.216-20.48-5.12s-9.216 13.312-5.12 20.48v0 0c3.072 5.12 4.096 12.288 2.048 18.432s-5.12 11.264-11.264 14.336l-5.12 3.072c-6.144 4.096-14.336 5.12-21.504 3.072s-13.312-7.168-17.408-13.312l-10.24-18.432c-3.072-6.144-10.24-8.192-16.384-7.168-6.144 2.048-11.264 7.168-11.264 14.336 0 0 0 10.24 0 15.36-1.024 6.144-6.144 13.312-13.312 16.384z" />
<glyph unicode="&#xe937;" d="M704 544c0-159.058-128.942-288-288-288s-288 128.942-288 288c0 159.058 128.942 288 288 288s288-128.942 288-288z" />
<glyph unicode="&#xe938;" d="M544 544c0-70.692-57.308-128-128-128s-128 57.308-128 128c0 70.692 57.308 128 128 128s128-57.308 128-128z" />
<glyph unicode="&#xe939;" glyph-name="icon_arrow_saldos_1" horiz-adv-x="1920" d="M1843.738 13.215l-807.419 807.415c-42.177 42.070-110.46 42.070-152.53 0l-807.524-807.415-76.265 76.265 807.524 807.416c84.032 84.14 220.92 84.14 305.060 0l807.416-807.416-76.262-76.265z" />
<glyph unicode="&#xe954;" d="M403.2 204.8c-19.2 0-38.4 6.4-54.4 22.4l-150.4 144c-32 28.8-32 80-3.2 108.8 28.8 32 80 32 108.8 3.2l96-89.6 297.6 307.2c28.8 32 80 32 108.8 3.2 32-28.8 32-80 3.2-108.8l-352-361.6c-12.8-19.2-32-28.8-54.4-28.8z" />
<glyph unicode="&#xe956;" glyph-name="radio-disabled" horiz-adv-x="1069" d="M1049.6 448c0-273.933-229.23-496-512-496s-512 222.067-512 496c0 273.933 229.23 496 512 496s512-222.067 512-496z" />
<glyph unicode="&#xe957;" glyph-name="icono_carrito-01" d="M880.64 283.819h-573.44c-26.326 0.2-48.285 18.653-53.86 43.318l-0.071 0.372-116.736 488.107h-77.483c-1.704-0.192-3.678-0.302-5.678-0.302-27.9 0-50.821 21.321-53.356 48.559l-0.016 0.212c-0.086 0.819-0.135 1.769-0.135 2.731s0.049 1.912 0.145 2.848l-0.010-0.118c0.192 31.027 25.293 56.128 56.302 56.32h120.85c26.373-0.066 48.402-18.584 53.863-43.324l0.068-0.367 30.72-123.221h706.219c0.314 0.006 0.684 0.010 1.054 0.010 30.162 0 54.613-24.451 54.613-54.613 0-4.856-0.634-9.563-1.823-14.045l0.086 0.381-89.771-363.179c-3.308-24.795-24.323-43.722-49.759-43.722-0.627 0-1.251 0.011-1.872 0.034l0.090-0.003zM56.32 887.296c-0.103 0.002-0.223 0.003-0.345 0.003-9.495 0-17.215-7.602-17.404-17.052v-0.018c-0.009-0.205-0.014-0.445-0.014-0.686 0-9.499 7.608-17.221 17.063-17.405h108.902l123.221-516.779c1.887-7.526 8.592-13.011 16.578-13.011 0.412 0 0.821 0.015 1.226 0.043l-0.054-0.003h575.147c8.254 0.31 15.21 5.543 18.044 12.833l0.047 0.137 91.136 361.813c0.499 1.563 0.787 3.362 0.787 5.227 0 3.792-1.189 7.306-3.214 10.189l0.038-0.057c-4.024 4.922-9.963 8.147-16.664 8.531l-0.062 0.003h-739.669l-34.133 154.283c-2.016 7.547-8.792 13.015-16.845 13.015-0.438 0-0.873-0.016-1.303-0.048l0.057 0.003zM354.304 188.928c0.101 0 0.221 0.001 0.341 0.001 46.94 0 84.992-38.052 84.992-84.992s-38.052-84.992-84.992-84.992c-46.94 0-84.992 38.052-84.992 84.992 0 0.12 0 0.24 0.001 0.359v-0.019c0.383 46.596 38.054 84.268 84.614 84.65h0.036zM354.304 227.499c-0.407 0.005-0.888 0.008-1.37 0.008-66.942 0-121.276-53.979-121.851-120.785v-3.127c0-68.053 55.168-123.221 123.221-123.221s123.221 55.168 123.221 123.221c0 68.053-55.168 123.221-123.221 123.221v0zM824.32 188.928c46.94 0 84.991-38.052 84.991-84.992s-38.052-84.992-84.992-84.992c-46.94 0-84.992 38.052-84.992 84.992 0 0.12 0 0.24 0.001 0.36v-0.019c0.574 46.638 38.325 84.27 84.956 84.65h0.036zM824.32 227.499c-68.053 0-123.221-55.168-123.221-123.221s55.168-123.221 123.221-123.221c68.053 0 123.221 55.168 123.221 123.221v0 0c0.005 0.409 0.008 0.893 0.008 1.377 0 66.702-53.593 120.886-120.067 121.843l-0.090 0.001z" />
<glyph unicode="&#xe958;" glyph-name="icono_carro" horiz-adv-x="1261" d="M353.379 110.799c-0.252 0.009-0.547 0.014-0.844 0.014-13.781 0-24.98-11.057-25.208-24.784v-75.655c-1.060-13.853-12.154-24.801-25.975-25.628l-0.077-0.004h-152.108c-0.252-0.009-0.547-0.014-0.844-0.014-13.781 0-24.98 11.057-25.208 24.784v101.286c0 14.388-11.664 26.052-26.052 26.052v0c-0.001 0-0.002 0-0.003 0-14.156 0-25.632-11.476-25.632-25.632 0-0.148 0.001-0.295 0.004-0.442v0.022-100.425c-0.007-0.378-0.011-0.824-0.011-1.271 0-39.94 32.025-72.4 71.797-73.101l0.066-0.001h155.050c0.378-0.007 0.824-0.011 1.271-0.011 39.94 0 72.4 32.025 73.101 71.797l0.001 0.066v77.315c5.462 13.026-6.303 25.632-19.329 25.632zM858.866 42.728h-453.804c-8.416 0.825-16.111 3.217-23.025 6.885l0.335-0.162-90.761 45.38h-216.817c-22.582 0.454-41.629 15.091-48.631 35.347l-0.111 0.369c-15.224 63.744-24.642 137.339-26.037 212.894l-0.014 0.982c0 123.115 42.019 200.85 126.057 246.231 74.794 38.657 230.263 58.406 504.227 58.406s427.752-16.387 504.227-55.465v0c87.819-45.38 126.057-123.115 126.057-246.231-0.979-76.329-10.421-149.96-27.427-220.644l1.375 6.768c-5.871-20.543-24.48-35.329-46.542-35.329-0.626 0-1.249 0.012-1.869 0.035l0.089-0.003h-217.238l-90.761-45.38c-4.308-6.129-11.347-10.085-19.31-10.085-0.006 0-0.013 0-0.019 0h0.001zM630.283 600.318c-259.256 0-414.726-16.387-479.856-52.103-71.432-35.296-100.425-97.064-100.425-203.792-0.034-2.594-0.053-5.658-0.053-8.727 0-68.524 9.531-134.821 27.339-197.64l-1.235 5.096h226.902l100.425-51.683h458.846l100.005 51.683h226.902c16.573 58.667 26.101 126.040 26.101 195.639 0 3.014-0.018 6.024-0.054 9.030l0.004-0.457c0 103.787-29.413 165.554-100.425 204.212v0c-68.071 30.254-226.902 48.742-484.478 48.742zM1211.824 422.158h-84.038c-34.986-0.802-66.693-14.208-90.898-35.837l0.137 0.12-123.115-123.115c-4.933-5.48-7.95-12.77-7.95-20.765 0-3.081 0.448-6.058 1.283-8.868l-0.056 0.22c3.692-9.2 12.4-15.643 22.651-15.966l0.039-0.001h279.005c12.897 1.695 22.75 12.618 22.75 25.842s-9.853 24.147-22.618 25.827l-0.132 0.014h-217.238l77.735 77.735c13.871 14.676 33.336 23.941 54.967 24.37l0.078 0.001h84.038c0.004 0 0.009 0 0.014 0 14.092 0 25.571 11.19 26.037 25.169l0.001 0.043c0.136 0.933 0.214 2.010 0.214 3.106 0 11.57-8.66 21.117-19.851 22.514l-0.111 0.011h-3.362zM132.78 422.158h-84.038c-14.388 0-26.052-11.664-26.052-26.052v0c0-14.388 11.664-26.052 26.052-26.052v0h84.038c0.565 0.016 1.23 0.024 1.898 0.024 20.885 0 39.736-8.707 53.122-22.688l0.025-0.027 77.735-77.735h-216.817c-0.992 0.134-2.138 0.21-3.302 0.21-14.388 0-26.052-11.664-26.052-26.052s11.664-26.052 26.052-26.052c1.164 0 2.31 0.076 3.434 0.224l-0.132-0.014h278.585c10.329 0.206 19.091 6.698 22.632 15.798l0.058 0.169c1.277 2.997 2.020 6.483 2.020 10.142 0 7.589-3.193 14.432-8.31 19.259l-0.013 0.012-123.535 123.115c-20.949 22.064-50.496 35.791-83.248 35.791-1.46 0-2.913-0.027-4.36-0.081l0.209 0.006zM784.492 195.256h-305.057c-0.378-0.011-0.823-0.018-1.269-0.018-15.379 0-28.987 7.58-37.294 19.207l-0.094 0.139-126.057 152.529c-7.324 7.914-11.817 18.54-11.817 30.217 0 7.875 2.044 15.273 5.63 21.692l-0.116-0.226c8.811 16.754 25.631 28.248 45.231 29.406l0.149 0.007h556.75c0.025 0 0.056 0 0.086 0 20.080 0 37.373-11.937 45.168-29.102l0.126-0.311c3.751-6.164 5.971-13.618 5.971-21.59 0-11.794-4.859-22.454-12.685-30.085l-0.009-0.008-126.057-152.529c-9.67-10.812-23.217-17.981-38.437-19.313l-0.22-0.016zM910.549 396.107h-557.17l126.057-152.108h304.637l126.057 152.108zM1134.51 593.595c-28.993 65.129-126.057 285.308-158.831 310.94-42.439 35.716-162.193 55.465-321.024 55.465h-51.683c-158.831 0-278.585-22.69-321.024-55.465-32.355-28.993-129.418-246.231-158.411-310.94-1.264-2.876-1.999-6.229-1.999-9.753 0-10.001 5.922-18.619 14.45-22.538l0.154-0.064c2.677-1.057 5.777-1.669 9.021-1.669 10.11 0 18.83 5.951 22.848 14.54l0.065 0.155c58.826 133.62 126.057 278.585 146.646 294.973s100.005 45.38 288.249 45.38h51.683c184.883 0 268.921-28.993 288.249-45.38s87.819-162.193 145.805-294.132c3.387-9.382 12.215-15.967 22.581-15.967 0.038 0 0.077 0 0.115 0h-0.006c0.564-0.099 1.212-0.156 1.874-0.156 3.019 0 5.763 1.179 7.795 3.102l-0.005-0.005c8.543 3.522 14.447 11.784 14.447 21.425 0 2.4-0.366 4.715-1.045 6.891l0.044-0.164c0.108 0.505 0.17 1.086 0.17 1.681s-0.062 1.175-0.179 1.735l0.010-0.055zM1163.503 136.85c-0.251 0.009-0.545 0.014-0.84 0.014-13.924 0-25.211-11.287-25.211-25.211 0-0.005 0-0.010 0-0.015v0.001-101.265c-1.060-13.853-12.154-24.801-25.975-25.628l-0.077-0.004h-152.108c-0.252-0.009-0.547-0.014-0.844-0.014-13.781 0-24.98 11.057-25.208 24.784v75.655c0.002 0.125 0.004 0.272 0.004 0.42 0 13.924-11.287 25.211-25.211 25.211-0.001 0-0.002 0-0.004 0v0c-0.655 0.065-1.416 0.102-2.186 0.102-12.292 0-22.382-9.425-23.439-21.442l-0.006-0.089c-0.2-0.628-0.316-1.351-0.316-2.101s0.116-1.473 0.33-2.152l-0.014 0.051v-74.794c-0.007-0.378-0.011-0.824-0.011-1.271 0-39.94 32.025-72.4 71.797-73.101l0.066-0.001h155.050c0.378-0.007 0.824-0.011 1.271-0.011 39.94 0 72.4 32.025 73.101 71.797l0.001 0.066v102.946c0.445 1.615 0.701 3.469 0.701 5.383 0 9.61-6.452 17.712-15.26 20.213l-0.148 0.036z" />
<glyph unicode="&#xe959;" glyph-name="icono_celular" horiz-adv-x="616" d="M296.043 879.23h-102.674c-11.085-0.556-19.862-9.679-19.862-20.852 0-0.249 0.004-0.498 0.013-0.745l-0.001 0.036c0.518-10.82 9.065-19.486 19.787-20.189l0.063-0.003h102.674c11.121 0.734 19.863 9.934 19.863 21.176 0 0.256-0.005 0.511-0.014 0.765l0.001-0.037c-0.532 10.742-9.108 19.318-19.801 19.848l-0.049 0.002zM153.326 857.668c0-12.097-9.807-21.904-21.904-21.904s-21.904 9.807-21.904 21.904c0 12.097 9.807 21.904 21.904 21.904s21.904-9.807 21.904-21.904zM308.021 123.893c-31.377 0-56.813-25.436-56.813-56.813s25.436-56.813 56.813-56.813c31.377 0 56.813 25.436 56.813 56.813v0c0 31.377-25.436 56.813-56.813 56.813v0zM308.021 49.283c-8.049 1.66-14.015 8.69-14.015 17.112s5.966 15.452 13.902 17.093l0.113 0.020c9.64 0 17.455-7.815 17.455-17.455v0c0-0.001 0-0.002 0-0.003 0-9.451-7.661-17.112-17.112-17.112-0.12 0-0.24 0.001-0.36 0.004h0.018zM549.989 960h-484.278c-36.291 0-65.711-29.42-65.711-65.711v0-892.578c0-36.291 29.42-65.711 65.711-65.711v0h484.278c0.102-0.001 0.222-0.001 0.342-0.001 36.291 0 65.711 29.42 65.711 65.711 0 0 0 0.001 0 0.001v0 892.578c0 0 0 0.001 0 0.001 0 36.291-29.42 65.711-65.711 65.711-0.12 0-0.241 0-0.361-0.001h0.019zM571.893 1.711c0-12.097-9.807-21.904-21.904-21.904v0h-484.278c-12.097 0-21.904 9.807-21.904 21.904v0 892.578c0 12.097 9.807 21.904 21.904 21.904v0h484.278c12.097 0 21.904-9.807 21.904-21.904v0zM344.642 549.305c-3.917 3.995-9.37 6.472-15.401 6.472s-11.484-2.476-15.398-6.468l-0.003-0.004-105.070-105.070c-4.985-4.048-8.144-10.176-8.144-17.042 0-12.097 9.807-21.904 21.904-21.904 6.866 0 12.995 3.159 17.011 8.104l0.032 0.040 105.070 104.727c3.912 3.955 6.329 9.396 6.329 15.401s-2.417 11.446-6.331 15.403l0.002-0.002zM406.588 488.727c-3.955 3.912-9.396 6.329-15.401 6.329s-11.446-2.417-15.403-6.331l0.002 0.002-41.754-42.096c-4.985-4.048-8.144-10.176-8.144-17.042 0-12.097 9.807-21.904 21.904-21.904 6.866 0 12.995 3.159 17.011 8.104l0.032 0.040 41.754 41.754c3.892 3.9 6.299 9.284 6.299 15.23s-2.407 11.33-6.299 15.23v0zM506.524 798.118h-397.69c-10.774 0-19.508-8.734-19.508-19.508v0-602.695c0.189-10.697 8.811-19.319 19.49-19.508h397.708c10.697 0.189 19.319 8.811 19.508 19.49v602.713c0 0.001 0 0.002 0 0.003 0 10.654-8.54 19.313-19.148 19.505h-0.018zM486.674 195.765h-357.989v562.995h358.332v-562.995z" />
<glyph unicode="&#xe95a;" horiz-adv-x="1026" d="M937.099 720.166h-122.825c19.197 24.329 30.792 55.432 30.792 89.243 0 0.019 0 0.037 0 0.056v-0.003c0 0 0 0.001 0 0.002 0 82.71-66.855 149.806-149.475 150.194h-0.037c-1.984 0.103-4.308 0.161-6.646 0.161-45.138 0-85.173-21.853-110.1-55.557l-0.263-0.372c-25.597-38.496-47.692-82.71-64.078-129.603l-1.269-4.17c-17.319 51.059-39.084 95.29-65.717 136.052l1.397-2.278c-24.278 34.093-63.663 56.062-108.18 56.062-3.107 0-6.188-0.107-9.241-0.317l0.412 0.023c-0.102 0-0.223 0-0.344 0-82.71 0-149.806-66.856-150.194-149.475v-0.037c-0.001-0.218-0.002-0.477-0.002-0.735 0-33.812 11.596-64.916 31.027-89.553l-0.233 0.307h-122.825c-49.359-0.194-89.296-40.252-89.296-89.638 0 0 0 0 0-0.001v0-61.242c-0.002-0.236-0.004-0.515-0.004-0.794 0-38.837 25.477-71.724 60.63-82.86l0.616-0.168v-460.167c0.194-49.239 40.057-89.103 89.278-89.296h725.337c49.239 0.194 89.103 40.057 89.296 89.278v460.185c35.768 11.304 61.245 44.191 61.245 83.028 0 0.279-0.001 0.558-0.004 0.837v-0.043 61.242c0 0 0 0 0 0.001 0 49.386-39.938 89.443-89.278 89.638h-0.019z" />
<glyph unicode="&#xe95b;" horiz-adv-x="1026" d="M568.965 747.536c46.872 117.351 63.979 153.617 125.562 153.617 49.015-0.575 88.573-40.253 88.954-89.26v-0.037c-1.113-48.744-40.241-87.991-88.832-89.294l-0.122-0.003h-136.853c2.886 9.51 6.727 17.791 11.539 25.397l-0.249-0.421z" />
<glyph unicode="&#xe95c;" horiz-adv-x="1026" d="M331.868 901.153c61.242 0 78.006-36.266 125.562-153.617 3.654-11.156 7.361-20.324 11.585-29.199l-0.637 1.486h-136.853c-49.092 0.386-88.762 40.177-88.954 89.278v0.018c0.344 49.738 39.799 90.15 89.125 92.028l0.172 0.005z" />
<glyph unicode="&#xe95d;" horiz-adv-x="1026" d="M393.109-5.495h-242.229c-17.006 0-30.792 13.786-30.792 30.792v0 0 455.377h273.705z" />
<glyph unicode="&#xe95e;" horiz-adv-x="1026" d="M393.451 541.231h-304.155c-17.006 0-30.792 13.786-30.792 30.792v0 61.242c0 17.006 13.786 30.792 30.792 30.792h304.155z" />
<glyph unicode="&#xe95f;" horiz-adv-x="1026" d="M571.702-5.495h-119.746v666.815h119.746z" />
<glyph unicode="&#xe960;" horiz-adv-x="1026" d="M906.307 25.296c0-17.006-13.786-30.792-30.792-30.792v0h-242.229v486.169h273.705z" />
<glyph unicode="&#xe961;" horiz-adv-x="1026" d="M965.153 569.286c0-0.001 0-0.001 0-0.002 0-17.006-13.786-30.792-30.792-30.792-0.12 0-0.24 0.001-0.36 0.002h-300.716v120.088h303.813c17.006 0 30.792-13.786 30.792-30.792v-58.847z" />
<glyph unicode="&#xe962;" glyph-name="actualizar_datos" d="M512-64c-281.6 0-512 230.4-512 512s230.4 512 512 512 512-230.4 512-512-230.4-512-512-512zM512 915.2c-256 0-467.2-211.2-467.2-467.2s211.2-467.2 467.2-467.2 467.2 211.2 467.2 467.2-211.2 467.2-467.2 467.2zM441.6 281.6l-92.8 92.8 217.6 217.6 92.8-92.8-217.6-217.6zM329.6 336l73.6-73.6-105.6-28.8 32 102.4zM748.8 624l-57.6 57.6c-12.8 12.8-51.2 32-86.4 0l-294.4-297.6c-3.2-3.2-3.2-6.4-6.4-9.6l-44.8-160c-3.2-6.4 0-16 6.4-19.2 3.2-3.2 16-3.2 19.2-3.2l160 44.8c3.2 0 6.4 3.2 9.6 6.4l294.4 297.6c22.4 22.4 22.4 60.8 0 83.2v0z" />
<glyph unicode="&#xe963;" glyph-name="cancelar-servicio" d="M512-64c-281.6 0-512 230.4-512 512s230.4 512 512 512 512-230.4 512-512-230.4-512-512-512zM512 915.2c-256 0-467.2-211.2-467.2-467.2s211.2-467.2 467.2-467.2 467.2 211.2 467.2 467.2-211.2 467.2-467.2 467.2zM768 630.4l-60.8 57.6-195.2-195.2-195.2 195.2-57.6-57.6 195.2-195.2-195.2-195.2 57.6-60.8 195.2 195.2 195.2-195.2 60.8 60.8-195.2 195.2z" />
<glyph unicode="&#xe964;" d="M499.2-64c-281.6 6.4-505.6 243.2-499.2 524.8s243.2 505.6 524.8 499.2 505.6-243.2 499.2-524.8c-6.4-281.6-243.2-505.6-524.8-499.2zM521.6 915.2c-256 3.2-470.4-198.4-476.8-457.6s198.4-470.4 454.4-476.8 470.4 198.4 476.8 454.4-195.2 473.6-454.4 480z" />
<glyph unicode="&#xe965;" d="M774.4 640c-19.2 16-44.8 16-64 0l-275.2-281.6-128 124.8c-19.2 16-44.8 16-64 0s-16-44.8 0-64l160-156.8c9.6-9.6 19.2-12.8 32-12.8 6.4 0 12.8 0 16 3.2 6.4 3.2 9.6 6.4 16 9.6l304 313.6c9.6 9.6 12.8 19.2 12.8 32 3.2 9.6 0 22.4-9.6 32z" />
<glyph unicode="&#xe966;" glyph-name="icon_arrow_saldos_2" horiz-adv-x="1920" d="M76.265 960l807.416-807.416c42.177-42.070 110.46-42.070 152.53 0l807.526 807.416 76.262-76.265-807.524-807.416c-84.032-84.14-220.92-84.14-305.060 0l-807.416 807.416 76.265 76.265z" />
<glyph unicode="&#xe967;" glyph-name="Globo" horiz-adv-x="2747" d="M2658.462-64h-2343.385c-0.108 0-0.237-0.001-0.365-0.001-48.74 0-88.251 39.511-88.251 88.251 0 0.128 0 0.257 0.001 0.385v-0.020 256l-226.462 167.385 226.462 150.646v272.738c-0.001 0.111-0.001 0.243-0.001 0.375 0 48.734 39.507 88.241 88.241 88.241 0.132 0 0.264 0 0.395-0.001h2343.365c0.111 0.001 0.243 0.001 0.375 0.001 48.734 0 88.241-39.507 88.241-88.241 0-0.132 0-0.264-0.001-0.395v0.020-846.769c0-0.108 0.001-0.237 0.001-0.365 0-48.74-39.511-88.251-88.251-88.251-0.128 0-0.257 0-0.385 0.001h0.020zM560.246 451.938l-12.8-268.8h72.862l-13.785 268.8zM2436.923 353.477c-1.478 0.222-3.183 0.349-4.918 0.349-19.228 0-34.816-15.588-34.816-34.816 0-1.735 0.127-3.44 0.372-5.107l-0.023 0.189c-0.089-1.025-0.14-2.217-0.14-3.422 0-10.369 3.779-19.856 10.034-27.158l-0.047 0.057c7.151-6.742 16.817-10.885 27.45-10.885 0.735 0 1.465 0.020 2.189 0.059l-0.101-0.004c0.43-0.017 0.936-0.027 1.443-0.027 10.521 0 20.075 4.136 27.126 10.872l-0.015-0.014c6.147 8.125 9.846 18.4 9.846 29.538s-3.699 21.413-9.936 29.662l0.090-0.124c-6.82 6.729-16.193 10.885-26.536 10.885-0.71 0-1.415-0.020-2.115-0.058l0.097 0.004zM2197.662 579.938c-43.806 0-78.582-13.578-103.385-40.369-24.172-26.112-36.431-63.547-36.431-111.262-0.016-0.902-0.024-1.967-0.024-3.033 0-28.161 6.176-54.879 17.247-78.874l-0.484 1.169c10.851-22.296 27.364-40.39 47.698-52.857l0.548-0.312c20.002-11.782 44.067-18.742 69.757-18.742 1.092 0 2.18 0.013 3.266 0.038l-0.161-0.003c43.156 0 77.598 13.578 102.4 40.369 12.151 13.32 21.561 29.368 27.194 47.098l0.247 0.902c5.72 18.234 9.016 39.2 9.016 60.936 0 1.164-0.009 2.325-0.028 3.485l0.002-0.175c0 46.75-11.914 82.816-36.431 110.277-11.783 13.269-26.341 23.8-42.79 30.724l-0.779 0.291c-16.166 6.554-34.917 10.356-54.556 10.356-0.811 0-1.62-0.006-2.428-0.019l0.122 0.002zM1588.185 578.954c-0.748 0.014-1.63 0.022-2.514 0.022-19.355 0-37.822-3.806-54.692-10.709l0.964 0.349c-16.783-7.203-30.909-17.736-42.088-30.857l-0.132-0.159c-11.655-13.722-20.757-30.022-26.323-47.881l-0.262-0.976c-5.637-18.351-8.883-39.446-8.883-61.299 0-1.078 0.008-2.154 0.024-3.228l-0.002 0.162c-0.013-0.822-0.020-1.792-0.020-2.763 0-21.202 3.522-41.582 10.012-60.586l-0.391 1.319c6.448-18.405 16.276-34.179 28.845-47.309l-0.045 0.047c26.496-26.496 61.607-39.385 107.323-39.385 0.669-0.006 1.459-0.010 2.251-0.010 17.671 0 34.922 1.796 51.581 5.215l-1.647-0.282c17.488 3.653 32.959 9.091 47.415 16.265l-1.138-0.511v50.206c-13.789-6.749-29.882-12.501-46.676-16.429l-1.571-0.31c-14.489-3.097-31.148-4.888-48.22-4.923h-0.026c-27.746 0-47.714 7.404-61.046 22.646-14.114 17.45-22.659 39.913-22.659 64.371 0 0.562 0.005 1.123 0.014 1.683l-0.001-0.085h194.954v33.477c0 40.842-11.264 73.314-33.477 96.492-10.922 11.418-24.23 20.457-39.133 26.326l-0.744 0.258c-14.74 5.622-31.787 8.877-49.594 8.877-0.738 0-1.474-0.006-2.209-0.017l0.111 0.001zM1124.431 574.031v-192c0-35.279 8.94-62.11 26.585-79.754s44.475-26.585 79.754-26.585c0.608-0.011 1.325-0.017 2.043-0.017 19.28 0 37.541 4.363 53.849 12.157l-0.754-0.324c15.575 7.2 28.29 18.334 37.208 32.149l0.207 0.343h2.954l8.862-38.4h47.262v292.431h-62.031v-144.738c0-35.712-6.292-62.218-18.708-78.769-11.914-15.902-30.602-23.631-57.108-23.631-1.263-0.106-2.734-0.166-4.219-0.166-15.402 0-29.29 6.487-39.079 16.877l-0.025 0.027c-8.749 12.466-13.981 27.955-13.981 44.666 0 1.953 0.071 3.889 0.212 5.806l-0.015-0.256v180.185h-63.015zM1740.8 574.031l111.262-292.431h68.923l111.262 292.431h-65.969l-60.062-170.338c-6.825-18.763-13.285-41.873-18.134-65.569l-0.574-3.354h-1.969c-4.462 26.131-10.959 49.291-19.556 71.402l0.848-2.479-60.062 170.338zM763.077 589.785h1.969l190.031-308.185h77.785v386.954h-58.092v-202.831c-0.020-1.657-0.031-3.614-0.031-5.573 0-19.196 1.084-38.139 3.195-56.771l-0.21 2.283c0.542-14.188 1.103-25.255 1.477-32.581 0.305-6.016 0.502-9.974 0.502-11.727h-1.969l-190.041 307.2h-76.8v-385.969h57.108v200.862c0 30.73-1.329 60.879-3.938 89.6l-0.985 16.738zM2400.492 668.554l13.785-269.785h46.277l12.8 269.785zM583.877 577.969c-1.036 0.105-2.24 0.164-3.457 0.164-10.221 0-19.458-4.209-26.074-10.988l-0.007-0.007c-6.16-7.37-9.9-16.947-9.9-27.397 0-0.753 0.019-1.502 0.058-2.246l-0.004 0.104c-0.149-1.291-0.235-2.787-0.235-4.304 0-21.855 17.717-39.572 39.572-39.572s39.572 17.717 39.572 39.572c0 1.168-0.051 2.325-0.15 3.467l0.010-0.148c0.055 0.824 0.087 1.787 0.087 2.756 0 10.575-3.75 20.275-9.993 27.841l0.060-0.075c-7.16 6.741-16.832 10.884-27.472 10.884-0.727 0-1.449-0.019-2.166-0.058l0.1 0.004zM2196.677 326.892c-1.323-0.095-2.867-0.149-4.424-0.149-21.007 0-39.709 9.872-51.719 25.231l-0.109 0.144c-12.337 16.738-18.59 42.338-18.59 76.18-0.114 2.142-0.179 4.649-0.179 7.172 0 24.768 6.264 48.073 17.294 68.417l-0.376-0.759c11.993 16.985 31.212 25.6 57.108 25.6 1.319 0.094 2.859 0.148 4.411 0.148 20.983 0 39.673-9.82 51.724-25.115l0.107-0.14c12.337-16.601 18.59-41.945 18.59-75.323 0-33.772-6.213-59.402-18.462-76.18-11.88-15.48-30.389-25.361-51.206-25.361-1.467 0-2.922 0.049-4.365 0.146l0.196-0.010zM1653.169 458.831h-132.923c1.188 21.141 9.172 40.215 21.782 55.287l-0.121-0.148c11.064 11.593 26.636 18.801 43.892 18.801 1.185 0 2.363-0.034 3.532-0.101l-0.162 0.007c1.113 0.077 2.413 0.121 3.723 0.121 16.844 0 31.996-7.242 42.513-18.783l0.041-0.046c11.148-13.365 17.916-30.723 17.916-49.661 0-1.927-0.070-3.839-0.208-5.731l0.015 0.253z" />
<glyph unicode="&#xe968;" glyph-name="Ico-avion" horiz-adv-x="1137" d="M84.021 784.082l49.887 47.262c0 0 2.626 2.626 5.251 2.626l5.251 2.626c2.626 0 5.251 0 5.251 0h5.251c0 0 0 0 2.626 0l275.692-63.015 39.385 42.010c10.503 10.503 28.882 10.503 42.010 0l47.262-47.262c2.626-2.626 5.251-7.877 7.877-10.503l36.759 34.133c5.251 5.251 13.128 7.877 21.005 7.877s15.754-2.626 21.005-7.877l44.636-47.262c5.251-5.251 7.877-13.128 7.877-21.005 0-2.626 0-5.251-2.626-7.877l7.877-2.626 168.041 168.041c31.508 31.508 131.282 94.523 175.918 49.887 42.010-42.010-10.503-133.908-47.262-173.292l-5.251-7.877-165.415-165.415 2.626-13.128c10.503 5.251 23.631 2.626 34.133-5.251l47.262-44.636c5.251-5.251 7.877-13.128 7.877-21.005s-2.626-15.754-7.877-21.005l-36.759-36.759c5.251 0 7.877-2.626 13.128-7.877l47.262-47.262c5.251-5.251 7.877-13.128 7.877-21.005s-2.626-15.754-7.877-21.005l-42.010-42.010 63.015-273.067v-2.626c0-2.626 0-2.626 0-5.251v-5.251c0-2.626 0-2.626-2.626-5.251l-2.626-5.251c0 0 0 0-2.626-2.626l-49.887-42.010c0 0-2.626-2.626-2.626-2.626l-5.251-2.626c-7.877-2.626-15.754-2.626-23.631 0l-5.251 5.251c0 0-2.626 0-2.626 2.626l-2.626 2.626c0 0-2.626 2.626-2.626 2.626l-165.415 288.821c0 0-2.626 2.626-2.626 5.251l-65.641 115.528-112.903-112.903-118.154-84.021 42.010-181.169c2.626-15.754-5.251-23.631-10.503-26.256l-15.754-15.754c-7.877-7.877-15.754-7.877-21.005-7.877-2.626 0-2.626 0-5.251 0-10.503 2.626-18.379 7.877-21.005 15.754l-81.395 141.785-60.39-42.010c-7.877-7.877-26.256-10.503-39.385 2.626s-10.503 28.882 0 39.385l39.385 57.764-139.159 81.395c-13.128 7.877-15.754 15.754-15.754 21.005 0 10.503 5.251 18.379 10.503 23.631l13.128 13.128c5.251 7.877 15.754 13.128 28.882 7.877l178.544-42.010 86.646 123.405 107.651 107.651-115.528 65.641c-2.626 0-5.251 2.626-5.251 2.626l-288.821 165.415c7.877 5.251-21.005 18.379 2.626 47.262zM396.472-14.113v0c0 0 0 0 0 0zM296.697 161.805l94.523-168.041 5.251 5.251c0 0 0 0 0 2.626l-44.636 196.923 139.159 97.149 141.785 141.785 252.062-441.108 34.133 34.133-65.641 286.195 52.513 49.887-36.759 36.759-28.882-28.882-15.754 68.267 57.764 57.764-36.759 34.133-31.508-31.508-21.005 94.523 183.795 183.795c34.133 39.385 65.641 105.026 47.262 123.405s-89.272-15.754-123.405-49.887l-183.795-183.795-91.897 21.005 34.133 31.508-34.133 36.759-55.138-55.138-68.267 15.754 28.882 26.256-36.759 36.759-49.887-49.887-288.821 65.641-36.759-34.133 441.108-252.062-144.41-144.41-97.149-136.533-199.549 44.636-5.251-5.251 165.415-97.149-39.385-55.138 57.764 42.010zM921.6 27.897c0 0 0 0 0 0v0zM215.303 85.662v0c0-2.626 0 0 0 0zM202.174 96.164c0-2.626 0-2.626 0 0v0zM107.651 266.831v0c0 0 0 0 0 0zM724.677 279.959v0c0 0 0 0 0 0zM123.405 282.585v0c0 0 0 0 0 0zM913.723 374.482c0 0 0 0 0 0v0zM890.092 495.262c0 0 0 0 0 0v0zM890.092 505.764c0 0 0 0 0 0v0zM842.831 539.897c0 0 0 0 0 0v0zM664.287 718.441c0 0 0 0 0 0v0zM535.631 752.574c0 0 0 0 0 0v0zM110.277 757.826v0c0 0 0 0 0 0zM619.651 765.703c0 0 0 0 0 0v0z" />
<glyph unicode="&#xe969;" glyph-name="Ico-tanquear" horiz-adv-x="1137" d="M611.774 524.144h-309.826c-34.133 0-60.39 28.882-60.39 60.39v207.426c0 34.133 28.882 60.39 60.39 60.39h309.826c15.754 0 31.508-5.251 44.636-18.379 10.503-10.503 18.379-26.256 18.379-44.636v-204.8c-2.626-34.133-31.508-60.39-63.015-60.39zM301.949 815.59c-13.128 0-23.631-10.503-23.631-23.631v-204.8c0-13.128 10.503-23.631 23.631-23.631h309.826c13.128 0 23.631 10.503 23.631 23.631v204.8c0 5.251-2.626 13.128-7.877 18.379s-10.503 7.877-18.379 7.877h-307.2zM806.072-24.615h-706.297v60.39c0 34.133 28.882 60.39 60.39 60.39h7.877v695.795c0 70.892 57.764 131.282 131.282 131.282h309.826c63.015 0 112.903-44.636 126.031-102.4 0 2.626 2.626 5.251 5.251 7.877 21.005 21.005 55.138 21.005 73.518 0v0c204.8-204.8 223.179-225.805 220.554-299.323 0-5.251 0-7.877 0-13.128v-204.8c0-76.144 0-259.938-139.159-259.938s-133.908 181.169-133.908 259.938c0 36.759-5.251 47.262-5.251 47.262s-5.251 2.626-15.754 2.626v-262.564h7.877c34.133 0 60.39-28.882 60.39-60.39v-63.015zM136.533 12.144h632.779v23.631c0 13.128-10.503 23.631-23.631 23.631h-44.636v338.708h18.379c31.508 0 49.887-2.626 63.015-15.754 10.503-10.503 15.754-34.133 15.754-73.518 0-115.528 13.128-220.554 102.4-220.554s102.4 107.651 102.4 220.554v204.8c0 5.251 0 10.503 0 15.754 2.626 55.138-2.626 65.641-210.051 273.067v0c-5.251 5.251-15.754 5.251-21.005 0-2.626-2.626-5.251-7.877-5.251-10.503s2.626-7.877 5.251-10.503c39.385-39.385 68.267-70.892 94.523-94.523l5.251-5.251v-107.651c0-28.882 10.503-39.385 26.256-57.764l73.518-73.518v-128.656c0-168.041-34.133-189.046-70.892-189.046s-70.892 23.631-70.892 189.046c0 47.262-7.877 76.144-26.256 94.523s-44.636 23.631-84.021 23.631h-18.379v359.713c0 52.513-42.010 91.897-91.897 91.897h-309.826c-52.513 0-91.897-42.010-91.897-91.897v-729.928h-47.262c-13.128 0-23.631-10.503-23.631-23.631v-26.256zM737.805 466.379c34.133-2.626 65.641-7.877 91.897-34.133s36.759-63.015 36.759-120.779c0-47.262 2.626-152.287 34.133-152.287 28.882 0 34.133 107.651 34.133 152.287v112.903l-68.267 65.641c-18.379 21.005-36.759 42.010-36.759 84.021v91.897c-23.631 23.631-52.513 52.513-89.272 89.272-2.626 2.626-2.626 2.626-5.251 5.251v-294.072z" />
<glyph unicode="&#xe96d;" glyph-name="gas-pump" d="M1005.205 720.004l-187.21 187.392c-2.9 2.873-6.891 4.648-11.297 4.648s-8.397-1.775-11.298-4.649l-22.593-22.593c-2.873-2.9-4.648-6.891-4.648-11.297s1.775-8.397 4.649-11.298l-0.001 0.001 59.194-59.409v-162.799c0.009-53.020 42.988-95.999 96.007-96.008h31.993v-348.391c0-31.794-21.801-61.605-53.198-66.808-3.223-0.574-6.932-0.903-10.719-0.903-35.392 0-64.083 28.691-64.083 64.083 0 0.010 0 0.019 0 0.029v-0.002 96.008c0 0.010 0 0.021 0 0.033 0 88.343-71.616 159.959-159.959 159.959-0.017 0-0.035 0-0.052 0h-31.989v384c0 70.606-57.394 128-128 128h-320c-70.606 0-128-57.394-128-128v-832h-47.996c-8.828-0.028-15.976-7.177-16.004-16.001v-31.995c0-8.803 7.201-16.004 16.004-16.004h671.992c8.828 0.028 15.976 7.177 16.004 16.001v31.995c-0.028 8.828-7.177 15.976-16.001 16.004h-47.999v384h32.008c53.013-0.019 95.982-42.994 95.992-96.007v-88.792c0-63.802 43.404-122.996 106.397-133.401 6.455-1.153 13.886-1.812 21.471-1.812 70.723 0 128.063 57.298 128.132 128.005v482.805c0 17.012-6.805 33.197-18.795 45.205zM960 608.008h-32.008c-17.646 0.056-31.936 14.346-31.992 31.986v98.804l64-64v-66.791zM576 0h-448v512h448v-512zM576 576h-448v256c0.103 35.305 28.695 63.897 63.99 64h320.010c35.305-0.103 63.897-28.695 64-63.99v-256.010z" />
<glyph unicode="&#xe96f;" glyph-name="salir" d="M859.789-42.777l142.989 142.989c24.937 24.937 24.937 64.995 0 89.932l-257.857 257.857 257.857 257.857c24.937 24.937 24.937 64.995 0 89.932l-142.989 142.989c-24.937 24.937-64.995 24.937-89.932 0l-257.857-257.857-257.857 257.857c-24.937 24.937-64.995 24.937-89.932 0l-142.989-142.989c-24.937-24.937-24.937-64.995 0-89.932l257.857-257.857-257.857-257.857c-24.937-24.937-24.937-64.995 0-89.932l142.989-142.989c24.937-24.937 64.995-24.937 89.932 0l257.857 257.857 257.857-257.857c24.672-24.672 64.995-24.672 89.932 0z" />
<glyph unicode="&#xe970;" glyph-name="Icono-Demo" d="M405.333 768v-640l341.333 320zM512-64c-281.6 0-512 230.4-512 512s230.4 512 512 512 512-230.4 512-512-230.4-512-512-512zM512 917.333c-256 0-469.333-213.333-469.333-469.333s213.333-469.333 469.333-469.333 469.333 213.333 469.333 469.333-213.333 469.333-469.333 469.333z" />
<glyph unicode="&#xe971;" glyph-name="icon_arow_mensajes" d="M924.314 392.521c20.506 25.139 19.038 62.217-4.39 85.649l-140.497 140.497-30.17-30.17 134.246-134.246h-737.836v-42.667h737.836l-134.246-134.251 30.17-30.17 140.497 140.497 4.39 4.86z" />
<glyph unicode="&#xe972;" glyph-name="icon_finanzas" d="M149.333 789.333h725.333c35.345 0 64-28.654 64-64v-554.667c0-35.345-28.655-64-64-64h-725.333c-35.346 0-64 28.655-64 64v554.667c0 35.346 28.654 64 64 64zM149.333 746.667c-11.782 0-21.333-9.551-21.333-21.333v-554.667c0-11.78 9.551-21.333 21.333-21.333h725.333c11.78 0 21.333 9.553 21.333 21.333v554.667c0 11.782-9.553 21.333-21.333 21.333h-725.333zM341.418 648.833l213.334-213.335 183.168 183.168h-97.92v42.667h128c23.565 0 42.667-19.103 42.667-42.667v-128h-42.667v97.742l-213.248-213.249-213.334 213.334-112.915-112.914-30.17 30.17 143.085 143.084zM405.333 234.667v128h42.667v-128h-42.667zM277.333 448v-213.333h42.667v213.333h-42.667zM533.333 234.667v85.333h42.667v-85.333h-42.667zM661.333 448v-213.333h42.667v213.333h-42.667z" />
<glyph unicode="&#xe973;" glyph-name="ico_Consultar_Inversion" horiz-adv-x="941" d="M678.827 701.013l-170.667 170.667v-170.667zM678.827 84.48c0 23.564 19.103 42.667 42.667 42.667s42.667-19.103 42.667-42.667v0-56.747c-0.235-50.269-40.681-91.014-90.812-91.733l-0.068-0.001h-581.547c-50.663 0-91.733 41.070-91.733 91.733v0 840.533c0 50.663 41.070 91.733 91.733 91.733h412.16c25.303-0.155 48.187-10.391 64.862-26.888l170.659-170.659c16.632-16.781 27.003-39.79 27.306-65.222l0.001-0.058v-94.72c0-23.564-19.103-42.667-42.667-42.667s-42.667 19.103-42.667 42.667v0 12.373h-218.027c-23.564 0-42.667 19.103-42.667 42.667v0 217.173h-335.36v-853.333h593.493zM508.16 344.32c0-74.463 60.364-134.827 134.827-134.827s134.827 60.364 134.827 134.827c0 74.463-60.364 134.827-134.827 134.827v0c-0.254 0.002-0.553 0.003-0.853 0.003-74.463 0-134.827-60.364-134.827-134.827 0-0.001 0-0.002 0-0.003v0zM820.48 224l113.493-113.493c4.758-4.586 7.713-11.015 7.713-18.133s-2.955-13.547-7.705-18.126l-0.008-0.007-20.907-21.333c-4.79-4.482-11.247-7.235-18.347-7.235s-13.557 2.753-18.362 7.249l0.015-0.014-114.347 113.493c-1.166 1.384-2.29 2.916-3.31 4.52l-0.103 0.173c-32.51-22.438-72.758-35.84-116.135-35.84-0.121 0-0.242 0-0.363 0h0.019c-0.127 0-0.277 0-0.427 0-115.464 0-209.067 93.602-209.067 209.067s93.602 209.067 209.067 209.067c115.464 0 209.066-93.602 209.067-209.066v0c0.002-0.337 0.003-0.735 0.003-1.134 0-43.199-13.237-83.306-35.876-116.487l0.46 0.714c1.649-0.932 3.057-2.068 4.253-3.398l0.013-0.015zM384 495.36c-0.461 6.692-6.003 11.947-12.772 11.947-0.010 0-0.020 0-0.030 0h-196.691c-0.008 0-0.018 0-0.028 0-6.769 0-12.311-5.254-12.769-11.907l-0.002-0.040v-35.413c0.461-6.692 6.003-11.947 12.772-11.947 0.010 0 0.020 0 0.030 0h195.411c0.008 0 0.018 0 0.028 0 6.769 0 12.311 5.254 12.769 11.907l0.002 0.040zM174.507 379.307h195.413c0.008 0 0.018 0 0.028 0 6.769 0 12.311-5.254 12.769-11.907l0.002-0.040v-35.413c-0.232-6.651-5.68-11.954-12.366-11.954-0.153 0-0.304 0.003-0.456 0.008l0.022-0.001h-195.413c-0.255-0.019-0.553-0.031-0.853-0.031-6.598 0-11.947 5.349-11.947 11.947 0 0.011 0 0.021 0 0.032v-0.002 35.413c0.232 6.651 5.68 11.954 12.366 11.954 0.153 0 0.304-0.003 0.456-0.008l-0.022 0.001zM170.667 744.533h163.413c5.891 0 10.667 4.776 10.667 10.667v0 34.133c0 5.891-4.776 10.667-10.667 10.667v0h-163.413c-5.112-0.851-8.961-5.241-8.961-10.529 0-0.048 0-0.096 0.001-0.145v0.007-34.133c-0.001-0.041-0.001-0.089-0.001-0.137 0-5.289 3.849-9.678 8.899-10.521l0.062-0.009zM170.667 616.533c-5.891 0-10.667 4.776-10.667 10.667v0 31.147c0 5.891 4.776 10.667 10.667 10.667v0h163.413c5.891 0 10.667-4.776 10.667-10.667v0-32.427c0-5.891-4.776-10.667-10.667-10.667v0z" />
<glyph unicode="&#xe974;" glyph-name="Select-Up" horiz-adv-x="1581" d="M874.874 930.175l676.039-676.039c17.838-23.158 28.59-52.576 28.59-84.505s-10.751-61.347-28.831-84.832l0.242 0.327-119.301-109.359c-20.207-24.469-50.548-39.945-84.505-39.945s-64.298 15.476-84.357 39.76l-0.148 0.185-467.262 477.204-477.204-477.204c-20.207-24.469-50.548-39.945-84.505-39.945s-64.298 15.476-84.357 39.76l-0.148 0.185-109.359 109.359c-21.677 21.604-35.089 51.488-35.089 84.505s13.412 62.901 35.086 84.501l666.1 666.1c21.965 24.799 53.887 40.352 89.441 40.352 30.625 0 58.555-11.54 79.679-30.508l-0.111 0.098z" />
<glyph unicode="&#xe975;" glyph-name="Select-Down" horiz-adv-x="1581" d="M705.864-24.233l-666.097 666.097c-24.469 20.207-39.945 50.548-39.945 84.505s15.476 64.298 39.76 84.357l0.185 0.148 109.359 109.359c20.207 24.469 50.548 39.945 84.505 39.945s64.298-15.476 84.357-39.76l0.148-0.185 477.204-467.262 467.262 467.262c20.207 24.469 50.548 39.945 84.505 39.945s64.298-15.476 84.357-39.76l0.148-0.185 119.301-109.359c17.838-23.158 28.59-52.576 28.59-84.505s-10.751-61.347-28.831-84.832l0.242 0.327-676.039-666.097c-21.604-21.677-51.488-35.089-84.505-35.089s-62.901 13.412-84.501 35.086l-0.003 0.003z" />
<glyph unicode="&#xe976;" glyph-name="gift" horiz-adv-x="1156" d="M1047.75 667.433h-88.758c21.614 30.48 34.552 68.436 34.552 109.414 0 0.107 0 0.213 0 0.319v-0.017c0 100.798-75.413 182.85-168.217 182.85-95.513 0-150.842-58.054-247.263-218.971-96.421 160.917-151.75 218.971-247.246 218.971-92.821 0-168.25-82.052-168.25-182.85 0-41.373 13.097-79.096 34.552-109.717h-88.725c-59.871 0-108.395-49.152-108.395-109.717v-219.433c0-20.117 16.252-36.567 36.137-36.567h36.121v-256c0-60.581 48.557-109.717 108.395-109.717h794.822c59.854 0 108.395 49.135 108.395 109.717v256h36.137c19.869 0 36.121 16.45 36.121 36.567v219.433c0 60.565-48.557 109.717-108.395 109.717zM623.682 675.658c111.765 190.398 149.025 211.175 201.629 211.175 52.835 0 95.959-49.135 95.959-109.7 0-60.581-43.124-109.717-95.959-109.717h-206.617l4.955 8.225zM330.802 886.834c52.852 0 89.881-20.794 201.662-211.192l4.724-8.225h-206.617c-52.835 0-95.959 49.135-95.959 109.717 0.231 60.565 43.355 109.7 96.19 109.7zM433.548 9.166h-252.911c-19.869 0-36.121 16.45-36.121 36.567v256h289.032v-292.567zM433.548 374.867h-361.29v182.85c0 20.117 16.252 36.567 36.137 36.567h325.153v-219.433zM650.323 9.166h-144.516v585.117h144.516v-585.117zM1011.613 45.733c0-20.117-16.252-36.567-36.137-36.567h-252.895v292.55h289.032v-256zM1083.871 374.867h-361.29v219.417h325.17c19.869 0 36.121-16.45 36.121-36.567v-182.883z" />
<glyph unicode="&#xe977;" glyph-name="plane" horiz-adv-x="1058" d="M881.311 576h-209.836l-192.982 367.885c-5.238 9.971-14.974 16.115-25.516 16.115h-162.228c-19.523 0-33.607-20.346-28.252-40.792l90.028-343.191h-117.508l-79.318 115.208c-5.54 8.058-14.269 12.792-23.502 12.792h-102.803c-19.103 0-33.137-19.557-28.487-39.768l57.848-216.249-57.848-216.232c-4.65-20.211 9.367-39.768 28.487-39.768h102.803c9.25 0 17.962 4.734 23.502 12.808l79.318 115.192h117.508l-90.028-343.208c-5.355-20.43 8.729-40.792 28.252-40.792h162.228c10.542 0 20.262 6.161 25.516 16.115l192.982 367.885h209.836c64.898 0 176.262 57.294 176.262 128s-111.364 128-176.262 128zM881.311 383.992h-243.947l-201.443-383.983h-106.227l100.721 383.983h-224.776l-88.131-127.983h-48.934l51.368 191.992-51.401 192.008h48.967l88.131-128h224.776l-100.721 384h106.261l201.443-384h243.913c48.178 0 114.957-43.512 117.508-63.824-2.552-20.681-69.33-64.176-117.508-64.176z" />
<glyph unicode="&#xe978;" glyph-name="Detalle" horiz-adv-x="768" d="M576 465.067v-55.467c0-14.138-11.462-25.6-25.6-25.6v0h-332.8c-14.138 0-25.6 11.462-25.6 25.6v0 55.467c2.115 12.186 12.61 21.336 25.242 21.336 0.126 0 0.251-0.001 0.377-0.003h332.781c0.106 0.002 0.232 0.002 0.358 0.002 12.632 0 23.127-9.149 25.22-21.183l0.022-0.153zM550.4 320h-332.8c-14.138 0-25.6-11.462-25.6-25.6v0-55.467c2.115-12.186 12.61-21.336 25.242-21.336 0.126 0 0.251 0.001 0.377 0.003h332.781c0.106-0.002 0.232-0.002 0.358-0.002 12.632 0 23.127 9.149 25.22 21.183l0.022 0.153v55.467c0 14.138-11.462 25.6-25.6 25.6v0zM768 695.467v-665.6c0-51.841-42.026-93.867-93.867-93.867v0h-580.267c-51.841 0-93.867 42.026-93.867 93.867v0 836.267c0 51.841 42.026 93.867 93.867 93.867v0h409.6c1.003 0.042 2.18 0.066 3.362 0.066 25.929 0 49.158-11.565 64.808-29.818l0.096-0.115 166.4-166.4c18.368-15.747 29.933-38.975 29.933-64.904 0-1.183-0.024-2.359-0.072-3.53l0.005 0.168zM512 857.6v-153.6h153.6zM674.133 29.867v580.267h-209.067c-25.921 0-46.933 21.013-46.933 46.933v0 209.067h-324.267v-836.267z" />
<glyph unicode="&#xe979;" glyph-name="Producto" horiz-adv-x="1314" d="M1204.706 960h-1095.187c-60.486 0-109.519-49.033-109.519-109.519v0-799.487c0-60.486 49.033-109.519 109.519-109.519v0h1095.187c60.486 0 109.519 49.033 109.519 109.519v0 799.487c0 60.486-49.033 109.519-109.519 109.519v0zM125.947 850.481h1062.332c10.952 0 16.428-5.476 16.428-10.952v-98.567h-1095.187v98.567c0 5.476 5.476 10.952 16.428 10.952zM1188.278 50.995h-1062.332c-10.952 0-16.428 5.476-16.428 10.952v388.791h1095.187v-388.791c0-5.476-5.476-10.952-16.428-10.952zM438.075 275.508v-87.615c0-15.121-12.258-27.38-27.38-27.38v0h-164.278c-15.121 0-27.38 12.258-27.38 27.38v0 87.615c0 15.121 12.258 27.38 27.38 27.38v0h164.278c15.121 0 27.38-12.258 27.38-27.38v0zM876.15 275.508v-87.615c0-15.121-12.258-27.38-27.38-27.38v0h-312.128c-15.121 0-27.38 12.258-27.38 27.38v0 87.615c0 15.121 12.258 27.38 27.38 27.38v0h312.128c15.121 0 27.38-12.258 27.38-27.38v0z" />
<glyph unicode="&#xe97a;" glyph-name="shopping-cart" horiz-adv-x="1145" d="M1095.854 832.538h-839.211l-16.54 88.481c-4.255 22.303-23.583 38.94-46.804 38.981h-169.468c-13.156 0-23.83-10.709-23.83-23.899v-15.933c0-13.191 10.674-23.899 23.83-23.899h156.273l138.83-742.712c-20.505-22.504-33.063-52.562-33.063-85.553 0-0.065 0-0.13 0-0.195v0.010c0-70.396 56.893-127.462 127.063-127.462s127.045 57.066 127.045 127.462c0 0.052 0 0.114 0 0.176 0 23.4-6.322 45.324-17.351 64.156l0.325-0.6h288.195c-10.715-18.239-17.044-40.173-17.044-63.585 0-0.051 0-0.103 0-0.154v0.008c0-70.396 56.893-127.462 127.045-127.462 70.187 0 127.063 57.066 127.063 127.462 0 35.84-14.753 68.191-38.478 91.344-5.37 20.889-24.026 36.081-46.234 36.1h-587.726l-23.83 127.462h657.877c22.563 0 42.036 15.881 46.653 38.044l86.016 414.234c6.161 29.679-16.419 57.535-46.653 57.535zM476.438 67.818c0-0.010 0-0.023 0-0.035 0-35.117-28.419-63.597-63.513-63.696h-0.009c-35.104 0.099-63.523 28.579-63.523 63.696 0 0.012 0 0.025 0 0.037v-0.002c0 0.010 0 0.023 0 0.035 0 35.117 28.419 63.597 63.513 63.696h0.009c35.104-0.099 63.523-28.579 63.523-63.696 0-0.012 0-0.025 0-0.037v0.002zM921.149 4.087c-35.104 0.099-63.523 28.579-63.523 63.696 0 0.012 0 0.025 0 0.037v-0.002c0 0.010 0 0.023 0 0.035 0 35.117 28.419 63.597 63.513 63.696h0.009c35.104-0.099 63.523-28.579 63.523-63.696 0-0.012 0-0.025 0-0.037v0.002c0-0.010 0-0.023 0-0.035 0-35.117-28.419-63.597-63.513-63.696h-0.009zM996.89 386.439h-656.853l-71.472 382.386h807.745l-79.386-382.369z" />
<glyph unicode="&#xe97b;" glyph-name="icon_cambiar_cuota" d="M786.438 765.285c-32.064 32.064-84.051 32.064-116.115 0l-36.88-36.88 116.115-116.117 36.88 36.881c32.064 32.064 32.064 84.051 0 116.116zM260.025 354.986l-38.705-154.819 154.821 38.704 343.248 343.248-116.115 116.117-343.249-343.25zM640.154 795.455c48.726 48.727 127.728 48.727 176.454 0s48.726-127.729 0-176.456l-414.477-414.477c-2.733-2.733-6.16-4.672-9.91-5.61l-195.047-48.762c-7.27-1.818-14.96 0.314-20.259 5.61-5.299 5.299-7.429 12.989-5.612 20.259l48.762 195.050c0.938 3.75 2.877 7.174 5.612 9.91l414.477 414.476zM426.666 106.666v42.669h426.666v-42.669h-426.666z" />
<glyph unicode="&#xe97c;" glyph-name="desbloquear" d="M699.426 723.692c-92.41 0.231-167.733-74.423-167.733-166.154v-55.385h-278.974c-30.803 0-55.795-24.808-55.795-55.385v-258.461c0-30.577 24.991-55.385 55.795-55.385h409.162c30.803 0 55.795 24.808 55.795 55.385v258.461c0 30.577-24.991 55.385-55.795 55.385h-74.393v54c0 60.923 48.937 111.577 110.427 112.154 62.072 0.692 112.752-49.269 112.752-110.769v-64.615c0-15.346 12.438-27.692 27.897-27.692s27.897 12.346 27.897 27.692v63c0 91.846-74.393 167.538-167.036 167.769zM661.88 446.769v-258.461h-409.162v258.461h409.162zM458.462 248.308c-18.017 0-32.547 14.423-32.547 32.308v73.846c0 17.885 14.53 32.308 32.547 32.308s32.547-14.423 32.547-32.308v-73.846c0-17.885-14.53-32.308-32.547-32.308z" />
<glyph unicode="&#xe97d;" glyph-name="icon_tooltip" d="M512 874.667c-235.642 0-426.667-191.025-426.667-426.667 0-235.639 191.025-426.667 426.667-426.667 235.639 0 426.667 191.027 426.667 426.667 0 235.642-191.027 426.667-426.667 426.667zM512 834.032c213.201 0 386.031-172.832 386.031-386.032s-172.83-386.031-386.031-386.031c-213.199 0-386.032 172.83-386.032 386.031 0 213.199 172.832 386.032 386.032 386.032zM411.307 614.4c0 49.485 40.115 89.6 89.6 89.6s89.6-40.115 89.6-89.6c0-49.485-40.115-89.6-89.6-89.6s-89.6 40.115-89.6 89.6zM547.84 614.4c0 25.92-21.013 46.933-46.933 46.933s-46.933-21.013-46.933-46.933c0-25.92 21.013-46.933 46.933-46.933s46.933 21.013 46.933 46.933zM384 365.542v125.124h146.654c26.863 0 48.64-21.777 48.64-48.64l-0.009-146.944 43.388-0.009v-126.293h-238.673v126.293l42.795 0.009v70.485l-42.795-0.026zM426.624 448v-39.765l42.842-0.026v-155.802l-42.842 0.009v-40.96h153.344v40.96l-43.341-0.009v189.619c0 3.298-2.671 5.973-5.973 5.973h-104.030z" />
<glyph unicode="&#xe97e;" glyph-name="Enviar-Email" horiz-adv-x="1764" d="M1462.044 533.333v-193.422l-295.822 5.689v-96.711l295.822-5.689-5.689-187.733 227.556 233.244zM1240.178 61.156h-1115.022v500.622c62.578-51.2 147.911-119.467 278.756-221.867 56.889-45.511 159.289-147.911 273.067-147.911s216.178 96.711 273.067 147.911c130.844 102.4 216.178 170.667 278.756 221.867v-159.289h125.156v432.356c11.378 68.267-45.511 125.156-113.778 125.156h-1115.022c-68.267 0-125.156-56.889-125.156-125.156v-768c0-73.956 56.889-130.844 125.156-130.844h1109.333c68.267 0 125.156 56.889 125.156 125.156v125.156h-125.156v-125.156zM125.156 834.844h1109.333v-108.089c-62.578-51.2-153.6-125.156-358.4-284.444-45.511-34.133-136.533-119.467-193.422-119.467-62.578 0-153.6 85.333-193.422 119.467-204.8 159.289-301.511 233.244-364.089 278.756v113.778z" />
<glyph unicode="&#xe97f;" d="M467.645 275.941l-9.224-11.881-188.947 191.836 19.052 19.052 167.249-164.543 290.856 353.175 19.052-19.052-298.038-368.586z" />
<glyph unicode="&#xe980;" glyph-name="icon-info" d="M512 960c-282.75 0-512-229.333-512-512 0-282.833 229.25-512 512-512s512 229.167 512 512c0 282.667-229.25 512-512 512zM512 35.097c-228.195 0-412.903 184.632-412.903 412.903 0 228.119 184.717 412.903 412.903 412.903 228.11 0 412.903-184.714 412.903-412.903 0-228.191-184.632-412.903-412.903-412.903zM512 732.903c47.888 0 86.71-38.821 86.71-86.71s-38.821-86.71-86.71-86.71c-47.888 0-86.71 38.821-86.71 86.71s38.821 86.71 86.71 86.71zM627.613 208.516c0-13.682-11.092-24.774-24.774-24.774h-181.677c-13.682 0-24.774 11.093-24.774 24.774v49.548c0 13.682 11.092 24.774 24.774 24.774h24.774v132.129h-24.774c-13.682 0-24.774 11.093-24.774 24.774v49.548c0 13.682 11.092 24.774 24.774 24.774h132.129c13.682 0 24.774-11.093 24.774-24.774v-206.452h24.774c13.682 0 24.774-11.093 24.774-24.774v-49.548z" />
<glyph unicode="&#xe981;" glyph-name="ico_Descargar" horiz-adv-x="1161" d="M633.467 924.673v-435.539l93.399 96.786c6.153 6.277 14.721 10.168 24.197 10.168s18.043-3.891 24.191-10.162l0.005-0.006 24.197-24.681c5.64-6.43 9.080-14.912 9.080-24.197s-3.441-17.766-9.116-24.239l0.036 0.042-193.573-198.896c-6.032-6.53-14.639-10.604-24.197-10.604s-18.164 4.075-24.176 10.582l-0.020 0.022-193.573 198.896c-5.835 6.35-9.411 14.856-9.411 24.197s3.576 17.847 9.435 24.222l-0.023-0.026 23.229 24.681c6.032 6.53 14.639 10.604 24.197 10.604s18.164-4.075 24.176-10.582l0.020-0.022 93.399-96.786v435.539c-0.002 0.145-0.003 0.316-0.003 0.487 0 19.074 15.327 34.569 34.337 34.84h34.384c0.289 0.009 0.63 0.014 0.971 0.014 19.243 0 34.843-15.6 34.843-34.843 0-0.175-0.001-0.35-0.004-0.524v0.026zM0 244.265v-90.011c2.42-121.074 101.14-218.297 222.567-218.297 1.546 0 3.088 0.016 4.627 0.047l-0.23-0.004h707.509c1.309-0.028 2.851-0.043 4.397-0.043 121.427 0 220.147 97.222 222.563 218.071l0.004 0.226v90.011c-0.263 15.032-12.51 27.117-27.58 27.117-0.342 0-0.682-0.006-1.021-0.019l0.049 0.001h-56.62c-0.149 0.003-0.324 0.004-0.5 0.004-15.163 0-27.517-12.023-28.050-27.056l-0.001-0.049v-90.011c-1.346-60.43-50.651-108.902-111.278-108.902-0.69 0-1.378 0.006-2.065 0.019l0.103-0.001h-707.509c-0.584-0.011-1.272-0.017-1.962-0.017-60.627 0-109.933 48.473-111.276 108.777l-0.002 0.125v90.011c-0.534 15.081-12.889 27.105-28.052 27.105-0.176 0-0.352-0.002-0.527-0.005h-56.594c-0.29 0.011-0.63 0.017-0.972 0.017-15.070 0-27.318-12.085-27.58-27.093v-0.025z" />
<glyph unicode="&#xe982;" glyph-name="ico_Realizar_Inversion" horiz-adv-x="1157" d="M1004.716 48.814h-171.149c32.395 19.878 60.494 41.69 85.976 66.202l-0.16-0.153h85.333c1.2 0.153 2.589 0.241 3.997 0.241 18.372 0 33.266-14.893 33.266-33.266s-14.893-33.266-33.266-33.266c-1.409 0-2.797 0.088-4.16 0.258l0.163-0.017zM152.347 48.814c-1.2-0.153-2.589-0.241-3.997-0.241-18.372 0-33.266 14.893-33.266 33.266s14.893 33.266 33.266 33.266c1.409 0 2.797-0.088 4.16-0.258l-0.163 0.017h85.333c25.322-24.359 53.421-46.171 83.676-64.821l2.14-1.228zM578.531 846.222c208.249-0.66 376.813-169.631 376.813-377.972 0-177.195-121.932-325.911-286.468-366.822l-2.601-0.547c-26.251-6.439-56.468-10.287-87.532-10.605l-0.212-0.002c-31.289 0.349-61.503 4.196-90.502 11.166l2.758-0.56c-167.137 41.458-289.069 190.174-289.069 367.369 0 208.341 168.563 377.312 376.749 377.972h0.063zM1006.644 227.194c40.023 69.211 63.638 152.25 63.638 240.804 0 0.088 0 0.176 0 0.265v-0.014c0 271.587-220.165 491.751-491.751 491.751s-491.751-220.165-491.751-491.751v0c0-0.074 0-0.162 0-0.251 0-88.554 23.615-171.592 64.892-243.161l-1.254 2.357c-79.878 0-144.633-64.754-144.633-144.633s64.754-144.633 144.633-144.633v0h854.298c79.878 0 144.633 64.754 144.633 144.633s-64.754 144.633-144.633 144.633v0zM572.746 335.186c-0.2-0.001-0.438-0.001-0.675-0.001-16.878 0-33.263 2.11-48.906 6.081l1.37-0.295c-18.461 5.719-34.427 12.756-49.383 21.352l1.172-0.621c-5.369 3.36-11.566 6.443-18.064 8.914l-0.738 0.246c-2.173 0.347-4.679 0.545-7.232 0.545s-5.058-0.198-7.503-0.58l0.272 0.035c-10.276-0.053-19.299-5.368-24.518-13.385l-0.069-0.114c-6.902-8.281-11.092-19.034-11.092-30.765 0-0.201 0.001-0.402 0.004-0.603v0.031c-0.009-0.338-0.013-0.736-0.013-1.135 0-7.656 1.785-14.895 4.96-21.324l-0.126 0.282c3.68-6.361 8.926-11.452 15.222-14.844l0.205-0.101c25.805-16.667 56.108-28.954 88.614-34.958l1.54-0.236c8.196 0 15.91-3.375 24.588-4.339v-26.998c-0.052-0.755-0.082-1.636-0.082-2.524 0-21.567 17.484-39.051 39.051-39.051 1.047 0 2.084 0.041 3.11 0.122l-0.136-0.009c0.655-0.036 1.422-0.057 2.194-0.057 11.064 0 21.139 4.235 28.692 11.173l-0.031-0.028c7.181 7.374 11.61 17.459 11.61 28.579 0 0.631-0.014 1.259-0.042 1.883l0.003-0.089v32.783h7.232c32.564 6.468 60.813 21.829 82.957 43.423l-0.034-0.033c20.859 20.707 33.771 49.394 33.771 81.098 0 0.811-0.008 1.62-0.025 2.428l0.002-0.121c0.070 1.444 0.11 3.136 0.11 4.838 0 23.779-7.825 45.729-21.040 63.418l0.199-0.279c-12.525 16.12-28.749 28.786-47.434 36.825l-0.777 0.297c-20.284 8.098-44.795 15.569-70.033 21.098l-3.248 0.597c-23.243 4.716-43.729 11.374-63.121 20.040l1.894-0.756c-11.42 4.849-19.284 15.969-19.284 28.927v0c-0.004 0.209-0.007 0.455-0.007 0.701 0 12.975 6.656 24.395 16.741 31.032l0.14 0.086c11.621 7.311 25.752 11.648 40.896 11.648 1.216 0 2.426-0.028 3.628-0.083l-0.17 0.006c0.257 0.002 0.561 0.003 0.865 0.003 12.198 0 24.026-1.584 35.29-4.557l-0.961 0.216c11.817-3.274 22.063-7.384 31.717-12.466l-0.862 0.414 18.802-10.124c5.228-2.847 11.582-5.767 18.133-8.289l1.151-0.389c4.086-1.828 8.855-2.893 13.873-2.893 0.038 0 0.076 0 0.114 0h-0.006c10.475 0.396 19.664 5.578 25.489 13.41l0.063 0.089c6.616 8.185 10.62 18.718 10.62 30.187 0 0.405-0.005 0.808-0.015 1.21l0.001-0.060c0.018 0.49 0.028 1.066 0.028 1.645 0 7.27-1.609 14.165-4.491 20.347l0.124-0.297c-3.78 7.017-9.18 12.726-15.721 16.765l-0.189 0.108c-27.569 18.040-59.979 31.335-94.781 37.832l-1.641 0.255v27.962c0.025 0.535 0.039 1.163 0.039 1.794 0 11.12-4.429 21.205-11.619 28.588l0.009-0.009c-7.653 7.184-17.98 11.597-29.338 11.597-0.533 0-1.064-0.010-1.593-0.029l0.076 0.002c-0.34 0.010-0.74 0.016-1.141 0.016-11.169 0-21.307-4.417-28.762-11.599l0.013 0.012c-7.46-7.35-12.081-17.562-12.081-28.854 0-0.534 0.010-1.066 0.031-1.595l-0.002 0.076v-29.891c-35.478-6.833-66.156-23.986-89.632-48.17l-0.040-0.041c-20.876-21.43-33.751-50.741-33.751-83.060 0-0.291 0.001-0.581 0.003-0.871v0.044c-0.073-1.446-0.114-3.14-0.114-4.843 0-23.692 8.024-45.511 21.502-62.886l-0.174 0.234c12.815-15.65 28.959-28.086 47.393-36.314l0.818-0.326c19.91-8.004 44.678-15.936 70.081-22.263l4.164-0.878c18.802-4.821 33.266-8.678 43.39-12.053 9.403-3.188 17.556-7.607 24.788-13.165l-0.201 0.148c6.18-4.714 10.127-12.081 10.127-20.371 0-0.127-0.001-0.253-0.003-0.379v0.019c0.028-0.521 0.043-1.13 0.043-1.743 0-12.68-6.706-23.794-16.765-29.989l-0.152-0.087c-11.939-6.333-26.101-10.051-41.132-10.051-3.002 0-5.97 0.148-8.896 0.438l0.37-0.030z" />
<glyph unicode="&#xe983;" glyph-name="icon_buscar" d="M469.333 192c-164.949 0-298.666 133.718-298.666 298.667s133.718 298.666 298.666 298.666c164.949 0 298.667-133.718 298.667-298.666s-133.718-298.667-298.667-298.667zM725.31 264.86c53.124 60.173 85.358 139.226 85.358 225.807 0 188.513-152.824 341.333-341.335 341.333-188.513 0-341.333-152.82-341.333-341.333 0-188.511 152.82-341.335 341.333-341.335 86.58 0 165.633 32.234 225.807 85.358l207.112-207.112 30.17 30.17-207.112 207.112zM426.667 682.667v42.666c-106.039 0-192-85.961-192-192h42.666c0 82.475 66.859 149.334 149.334 149.334z" />
<glyph unicode="&#xe984;" glyph-name="icon_descargar" d="M532.835 832l-0.003-517.475 0.646 0.602c9.782 9.213 26.179 25.142 49.165 47.77l153.699 152.771 31.658-29.76-166.25-165.104-40.214-38.842c-31.517-29.354-67.562-29.354-97.581 0.493l-207.955 203.286 31.322 30.093 202.844-198.291v514.458h42.669zM106.667 277.334v-128c0-82.477 66.859-149.334 149.333-149.334h512c82.474 0 149.334 66.858 149.334 149.334v128h-42.669v-128c0-58.912-47.754-106.669-106.666-106.669h-512c-58.91 0-106.667 47.757-106.667 106.669v128h-42.667z" />
<glyph unicode="&#xe985;" d="M1024 448c0-282.77-229.23-512-512-512s-512 229.23-512 512c0 282.77 229.23 512 512 512s512-229.23 512-512z" />
<glyph unicode="&#xe986;" d="M565.895 421.053v215.579c0 14.848 12.099 26.947 26.947 26.947s26.947-12.099 26.947-26.947v-215.579h26.947v134.737c0 14.848 12.099 26.947 26.947 26.947s26.947-12.099 26.947-26.947v-188.632c0-89.169-72.515-161.684-161.684-161.684h-26.947c-89.169 0-161.684 72.515-161.684 161.684v161.684c29.723 0 53.895-24.172 53.895-53.895v-80.842h13.474c52.008 0 94.316-42.307 94.316-94.316v-13.474h26.947v13.474c0 62.302-47.239 113.799-107.789 120.509v54.649c0 23.886-10.418 45.39-26.947 60.203v101.481c0 14.848 12.099 26.947 26.947 26.947s26.947-12.099 26.947-26.947v-215.579h26.947v242.526c0 14.848 12.099 26.947 26.947 26.947s26.947-12.099 26.947-26.947v-242.526h26.947zM377.263 551.171c-8.432 2.991-17.502 4.619-26.947 4.619h-26.947v-188.632c0-104.017 84.615-188.632 188.632-188.632h26.947c104.017 0 188.632 84.615 188.632 188.632v188.632c0 29.723-24.172 53.895-53.895 53.895-9.812 0-19.017-2.633-26.947-7.23v34.177c0 29.723-24.172 53.895-53.895 53.895-11.086 0-21.399-3.363-29.976-9.122-7.373 20.987-27.387 36.069-50.866 36.069s-43.493-15.082-50.866-36.069c-8.577 5.759-18.89 9.122-29.976 9.122-29.723 0-53.895-24.172-53.895-53.895v-85.461z" />
<glyph unicode="&#xe987;" d="M1024 448c0-282.77-229.23-512-512-512s-512 229.23-512 512c0 282.77 229.23 512 512 512s512-229.23 512-512z" />
<glyph unicode="&#xe988;" d="M296.421 240.317l19.052-19.052 202.105 202.105 202.105-202.105 19.052 19.052-202.105 202.105 202.105 202.105-19.052 19.052-202.105-202.105-202.105 202.105-19.052-19.052 202.105-202.105-202.105-202.105z" />
<glyph unicode="&#xe989;" glyph-name="icon_salir" d="M597.333 832v-42.667h-426.247l-0.020-530.172c4.359-101.376 38.946-149.15 105.684-152.324l7.273-0.171h313.31v-42.667h-313.31c-94.831 0-147.266 63.612-155.377 182.571l-0.646 11.682v573.747h469.333zM678.327 661.333l196.028-190.626c28.779-27.516 28.779-60.557 0.474-89.446l-37.453-36.864-159.206-152.397-28.702 29.022 147.319 140.89c21.227 20.497 36.339 35.281 45.325 44.326h-415.445v40.427h413.867l-191.223 185.958 29.018 28.711z" />
<glyph unicode="&#xe98a;" glyph-name="icon_desbloquear" d="M298.667 661.334v-127.999h-85.333v-213.334c0-164.694 133.975-298.666 298.666-298.666 164.694 0 298.669 133.971 298.669 298.666v213.334h-469.334v127.999c0 94.123 76.544 170.667 170.666 170.667 94.125 0 170.669-76.544 170.669-170.667h42.666c0 117.632-95.702 213.333-213.334 213.333s-213.333-95.701-213.333-213.333zM256.001 320v170.666h511.999v-170.666c0-141.184-114.816-256-256-256s-255.999 114.816-255.999 256zM512 405.334c-23.507 0-42.666-19.158-42.666-42.669 0-23.507 19.158-42.666 42.666-42.666 23.51 0 42.669 19.158 42.669 42.666 0 23.51-19.158 42.669-42.669 42.669zM597.334 362.666c0-39.696-27.232-73.139-64-82.634v-88.032h-42.666v88.032c-36.771 9.494-64 42.938-64 82.634 0 47.062 38.272 85.334 85.331 85.334 47.062 0 85.334-38.272 85.334-85.334z" />
<glyph unicode="&#xe98b;" glyph-name="icon_pagar" d="M810.352 661.333v-298.668h42.982v426.668h-682.668v-426.668h330.78c30.742 45.84 80.694 77.763 138.237 84.141v86.528c0 70.57 57.43 127.999 128 127.999h42.669zM896 320h-88.688c-20.762-144.554-145.418-256-295.629-256h-42.349c-148.563 0-274.767 110.918-295.611 256h-45.723v512h768v-512zM216.902 320c20.467-121.322 127.184-213.334 252.432-213.334h42.349c141.184 0 256 114.816 256 256v256c-47.059 0-85.331-38.272-85.331-85.331v-128h-21.334c-82.346 0-149.334-66.989-149.334-149.334v-21.334h-42.666v21.334c0 22.429 3.866 43.971 10.97 64h-263.085zM469.334 576c0 23.51 19.155 42.666 42.666 42.666s42.666-19.155 42.666-42.666c0-23.51-19.155-42.666-42.666-42.666s-42.666 19.155-42.666 42.666zM426.666 576c0-47.062 38.272-85.334 85.334-85.334s85.334 38.272 85.334 85.334c0 47.062-38.272 85.333-85.334 85.333s-85.334-38.271-85.334-85.333zM682.666 704v42.667h128v-42.667h-128zM213.333 405.334v341.332h128.001v-42.667h-85.334v-256h85.334v-42.666h-128.001z" />
<glyph unicode="&#xe98c;" glyph-name="icon_comida" d="M362.667 576c58.88 0 106.667 47.787 106.667 106.667v192h42.667v-192c0-59.307-34.987-110.507-85.333-134.4v-462.933c0-35.413-28.587-64-64-64s-64 28.587-64 64v462.933c-50.347 24.32-85.333 75.093-85.333 134.4v192h42.667v-192c0-58.88 47.787-106.667 106.667-106.667zM362.667 64c11.947 0 21.333 9.387 21.333 21.333v450.133c-1.525-0.19-3.072-0.402-4.635-0.617-5.432-0.745-11.065-1.516-16.699-1.516s-11.266 0.772-16.699 1.516c-1.563 0.215-3.11 0.427-4.635 0.617v-450.133c0-11.947 9.387-21.333 21.333-21.333zM298.667 874.667h42.667v-213.333h-42.667v213.333zM618.667 874.667h-21.333v-789.333c0-35.413 28.587-64 64-64s64 28.587 64 64v322.133c48.64 9.813 85.333 52.907 85.333 104.533v170.667c0 105.813-86.187 192-192 192zM768 512c0-35.413-28.587-64-64-64h-21.333v-362.667c0-11.947-9.387-21.333-21.333-21.333s-21.333 9.387-21.333 21.333v744.96c72.107-10.24 128-72.533 128-147.627v-170.667zM384 874.667h42.667v-213.333h-42.667v213.333z" />
<glyph unicode="&#xe98d;" glyph-name="icon_contactanos1" d="M896.038 490.667h-42.667v21.333c0 152.917-124.416 277.333-277.333 277.333h-21.333v42.667h21.333c176.469 0 320-143.531 320-320v-21.333zM768.038 490.667h-42.667v21.333c0 82.347-66.987 149.333-149.333 149.333h-21.333v42.667h21.333c105.856 0 192-86.144 192-192v-21.333zM175.499 507.853c-10.027 71.467-4.437 141.739 16.683 208.939 5.632 17.877 22.101 29.867 41.003 29.867h108.288c23.467 0 42.581-19.115 42.581-42.581v-97.92l-85.333-85.333v-8.832c0-152.917 124.416-277.333 277.335-277.333h8.832l85.333 85.333h97.92c23.467 0 42.581-19.115 42.581-42.581v-108.245c0-18.944-12.032-35.413-29.909-41.003-67.157-21.163-137.472-26.795-208.939-16.725-204.631 28.757-367.618 191.787-396.375 396.416zM565.943 69.197c24.96-3.499 49.792-5.248 74.411-5.248 52.181 0 103.509 7.851 153.259 23.509 35.755 11.221 59.776 44.032 59.776 81.707v108.245c0 47.019-38.272 85.248-85.248 85.248h-97.92c-11.264 0-22.229-4.565-30.165-12.501l-72.704-72.661c-122.496 4.48-221.357 103.296-225.837 225.835l72.704 72.661c7.936 7.936 12.503 18.944 12.503 30.165v97.92c0 47.019-38.274 85.248-85.25 85.248h-108.288c-37.632 0-70.485-24.021-81.707-59.733-23.040-73.259-29.141-149.888-18.219-227.669 31.36-223.403 209.28-401.323 432.685-432.725z" />
<glyph unicode="&#xe98e;" glyph-name="icon_demo" d="M810.667 277.333h-597.333v384c0 23.509 19.115 42.667 42.667 42.667h512c23.552 0 42.667-19.157 42.667-42.667v-384zM170.667 661.333v-384h-85.333v-42.667c0-47.061 38.272-85.333 85.333-85.333h682.667c47.061 0 85.333 38.272 85.333 85.333v42.667h-85.333v384c0 47.061-38.272 85.333-85.333 85.333h-512c-47.061 0-85.333-38.272-85.333-85.333zM128 234.667h768c0-23.509-19.115-42.667-42.667-42.667h-682.667c-23.552 0-42.667 19.157-42.667 42.667zM576 618.667v42.667h-128v-42.667h128z" />
<glyph unicode="&#xe98f;" glyph-name="icon_detalle" d="M725.333 106.667h-426.667v469.333h170.667v170.667h298.667v-597.333c0-23.552-19.157-42.667-42.667-42.667zM426.667 716.501l-97.835-97.835h97.835v97.835zM256 64h469.333c47.061 0 85.333 38.272 85.333 85.333v640h-371.499l-183.168-183.168v-542.165zM725.338 576h-213.333v42.667h213.333v-42.667zM341.338 448h384v42.667h-384v-42.667zM725.338 320h-384v42.667h384v-42.667zM341.338 192h384v42.667h-384v-42.667z" />
<glyph unicode="&#xe990;" glyph-name="icon_diversion" d="M128 448c0 211.712 172.288 384 384 384s384-172.288 384-384c0-211.712-172.288-384-384-384s-384 172.288-384 384zM85.333 448c0-235.264 191.403-426.667 426.667-426.667s426.667 191.403 426.667 426.667c0 235.264-191.403 426.667-426.667 426.667s-426.667-191.403-426.667-426.667zM341.333 448c-13.138 0-25.544-6.054-33.63-16.41s-10.949-23.859-7.763-36.606c27.33-109.316 134.142-160.318 212.059-160.318s184.731 51.003 212.059 160.318c3.187 12.746 0.323 26.25-7.762 36.606-8.086 10.356-20.492 16.41-33.631 16.41h-341.333zM359.016 362.667c-7.697 12.785-13.767 27.008-17.682 42.667h341.333c-3.914-15.659-9.984-29.881-17.682-42.667-34.25-56.889-100.729-85.333-152.984-85.333s-118.733 28.444-152.984 85.333zM682.667 533.333h42.667c0 47.128-38.205 85.333-85.333 85.333s-85.333-38.205-85.333-85.333h42.667c0 23.564 19.102 42.667 42.667 42.667s42.667-19.102 42.667-42.667zM384 533.333c23.564 0 42.667 19.102 42.667 42.667s-19.102 42.667-42.667 42.667c-23.564 0-42.667-19.102-42.667-42.667s19.102-42.667 42.667-42.667z" />
<glyph unicode="&#xe991;" glyph-name="icon_educacion" d="M298.667 832h533.333v-640h-42.667v-85.333h42.667v-42.667h-533.333c-47.128 0-85.333 38.205-85.333 85.333v597.333c0 47.128 38.205 85.333 85.333 85.333zM746.667 192h-448c-23.564 0-42.667-19.102-42.667-42.667s19.102-42.667 42.667-42.667h448v85.333zM789.333 234.667v554.667h-490.667c-23.564 0-42.667-19.102-42.667-42.667v-523.416c12.551 7.261 27.124 11.416 42.667 11.416h490.667zM362.667 661.333v-42.667h341.333v42.667h-341.333zM704 533.333v-42.667h-341.333v42.667h341.333zM362.667 405.333v-42.667h341.333v42.667h-341.333z" />
<glyph unicode="&#xe992;" glyph-name="icon_eliminar_bolsillo" d="M609.523 832v-90.353h195.046c28.706 0 48.764-24.778 48.764-52.706v-82.824h-48.764v-542.118h-585.141v542.118h-48.762v82.824c0 27.927 20.058 52.706 48.762 52.706h195.048v90.353h195.047zM755.81 606.118h-487.62v-496.942h487.62v496.942zM804.57 651.294v37.647c0 2.309-0.329 4.029-0.563 5.237v0 0.001c-0.196 1.027-0.324 1.684-0.115 2.020l0.678 0.271h-585.141c1.006 0 0.87-0.706 0.564-2.292-0.233-1.208-0.564-2.929-0.564-5.237v-37.647h585.141zM560.764 741.647v45.177h-97.527v-45.177h97.527zM390.095 154.351h-48.762v406.59h48.762v-406.59zM536.38 560.941h-48.759v-406.59h48.759v406.59zM682.667 560.941h-48.764v-406.59h48.764v406.59z" />
<glyph unicode="&#xe993;" glyph-name="icon_enviar" d="M128 673.835l242.352-242.353-242.352-235.875v478.228zM170.666 149.334c-8.231 0-15.928 2.349-22.457 6.41l252.293 245.587 111.498-111.498 101.344 101.347 247.594-241.168c-2.467-0.445-5.008-0.678-7.603-0.678h-682.668zM893.565 177.795l-250.048 243.555 252.483 252.484v-481.835c0-4.976-0.858-9.76-2.435-14.205zM158.204 704h707.591l-353.795-353.834-353.796 353.834zM170.666 106.666h682.668c47.059 0 85.331 38.272 85.331 85.334v554.667h-853.332v-554.667c0-47.062 38.272-85.334 85.333-85.334z" />
<glyph unicode="&#xe994;" glyph-name="icon_facturas-agrupadas" d="M249.903 710.097v-182.858h182.858v182.858h-182.858zM213.332 490.669v255.999h255.999v-255.999h-255.999zM591.235 710.097v-182.858h182.858v182.858h-182.858zM554.666 490.669v255.999h256v-255.999h-256zM432.762 326.096v-182.858h-182.858v182.858h182.858zM213.332 362.669v-256h255.999v256h-255.999zM591.235 326.096v-182.858h182.858v182.858h-182.858zM554.666 106.669v256h256v-256h-256z" />
<glyph unicode="&#xe995;" glyph-name="icon_favorito" d="M469.345 844.696l-93.938-240.064-247.381-19.22c-12.336-0.957-23.786-7.058-31.779-16.93l-3.462-4.858c-12.516-20.065-9.074-47.205 8.867-63.082l189.335-167.559-58.963-251.972c-2.941-12.561-0.931-25.833 5.58-36.836l3.094-4.608c14.332-18.921 40.27-24.018 60.375-11.008l210.9 136.522 210.993-136.522c10.519-6.81 23.211-8.909 35.226-5.837l5.148 1.655c21.641 8.402 34.293 32.62 28.672 56.633l-59.005 251.972 189.377 167.559c9.444 8.356 15.275 20.329 16.191 33.227l0.091 5.631c-0.956 24.116-19.075 44.183-42.655 46.013l-247.427 19.22-93.891 240.064c-4.683 11.972-13.77 21.473-25.219 26.37-23.568 10.079-50.489-1.727-60.129-26.37zM407.299 558.748l104.72 267.699 104.719-267.699 275.86-21.411-211.137-186.856 65.769-280.934-235.211 152.218-235.211-152.218 65.77 280.934-211.138 186.856 275.859 21.411z" />
<glyph unicode="&#xe996;" glyph-name="icon_otros" d="M804.848 894.634c-101.542 7.916-172.134-19.286-209.027-79.732h-152.528c-36.893 60.446-107.485 87.648-209.029 79.732l-19.675-1.534v-182.355h-79.059l-6.172-0.263c-36.615-3.129-65.357-33.841-65.357-71.266v-100.394l0.262-6.17c3.129-36.618 33.842-65.36 71.267-65.36l28.863-0.208v-354.928l0.223-6.614c3.4-50.282 45.262-90.013 96.404-90.013l508.578 0.224c50.278 3.398 90.010 45.261 90.010 96.403v355.136h28.864l6.173 0.262c36.614 3.13 65.357 33.843 65.357 71.267v100.394l-0.262 6.171c-3.13 36.615-33.84 65.358-71.267 65.358h-63.946v182.355l-19.677 1.534zM574.861 764.706c-4.080-15.409-6.768-32.146-8.042-50.196h-94.525c-1.277 18.050-3.965 34.787-8.045 50.196h110.611zM612.394 737.072c13.629 78.385 64.541 116.105 157.328 116.293l12.166-0.203-0.026-142.418h-169.469v26.327zM269.39 853.366c102.632-0.209 154.034-46.335 160.415-142.621h-172.552l-0.015 142.418 12.153 0.203zM441.302 668.078l0.358-3.764h42.883l5.763-22.682-60.867-246.282-42.336 11.75-52.982 15.597 100.976 245.38h6.205zM415.373 353.923v-295.728h-154.353l-5.517 0.278c-27.21 2.765-48.444 25.744-48.444 53.683v354.618l98.804-0.72-29.164-70.902 98.668-29.069 40.006-12.16zM458.038 342.906l54.128 212.701 53.795-211.709v-285.702h-107.923v284.71zM762.979 58.195h-154.352v294.224l36.669 7.837 102.374 36.205-30.986 70.832h100.256v-355.136l-0.278-5.517c-2.762-27.21-25.744-48.445-53.683-48.445zM629.398 399.811l-33.984-15.341h-5.306l-56.557 255.171 6.278 24.672h44.093l106.294-242.938-60.819-21.565zM698.019 509.962l-69.174 158.116h259.626l4.266-0.313c13.917-2.061 24.598-14.058 24.598-28.549v-100.394l-0.314-4.266c-2.061-13.917-14.058-24.595-28.55-24.595h-190.451zM135.529 668.078h253.437l-65.606-159.486-187.675 1.366-4.304 0.314c-14.035 2.064-24.715 14.061-24.715 28.55v100.394l0.313 4.265c2.061 13.918 14.059 24.597 28.55 24.597z" />
<glyph unicode="&#xe997;" glyph-name="icon_Plus, 2" d="M85.333 448c0 235.642 191.025 426.667 426.667 426.667s426.667-191.025 426.667-426.667c0-235.642-191.025-426.667-426.667-426.667s-426.667 191.025-426.667 426.667zM898.032 448c0 213.199-172.833 386.032-386.032 386.032s-386.032-172.833-386.032-386.032c0-213.199 172.833-386.032 386.032-386.032s386.032 172.833 386.032 386.032zM533.333 469.333h213.333v-42.667h-213.333v-213.333h-42.667v213.333h-213.333v42.667h213.333v213.333h42.667v-213.333z" />
<glyph unicode="&#xe998;" glyph-name="icon_plus_bolsillos" d="M85.333 448c0 235.641 191.025 426.667 426.667 426.667 235.64 0 426.665-191.025 426.665-426.667s-191.024-426.668-426.665-426.668c-235.642 0-426.667 191.027-426.667 426.668zM898.030 448c0 213.2-172.83 386.032-386.030 386.032s-386.032-172.832-386.032-386.032c0-213.2 172.832-386.033 386.032-386.033s386.030 172.833 386.030 386.033zM533.332 469.332h213.332v-42.665h-213.332v-213.335h-42.668v213.335h-213.332v42.665h213.332v213.334h42.668v-213.334z" />
<glyph unicode="&#xe999;" glyph-name="icon_politicas" d="M571.302 290.56c-19.627 19.627-23.040 48.64-11.947 72.533l-63.147 63.573-256.425-256.427c-12.373-12.373-29.013-18.773-45.227-18.773s-32.853 6.4-45.227 18.773c-24.747 24.747-24.747 65.707 0 90.453l256.427 256.427-63.573 63.572c-8.96-4.267-17.92-6.827-27.307-6.827-16.213 0-32.853 6.4-45.227 18.773-24.747 24.747-24.747 65.707 0 90.453l150.613 150.613c24.745 24.747 65.705 24.747 90.452 0 11.947-11.947 18.773-28.16 18.773-45.227 0-9.387-2.56-18.773-6.4-27.307l217.173-217.173c23.893 11.093 52.907 7.68 72.533-11.946 11.947-11.947 18.773-28.16 18.773-45.227s-6.827-33.28-18.773-45.227l-151.040-151.040c-12.373-12.373-29.013-18.773-45.227-18.773s-32.853 6.4-45.227 18.773zM179.197 200.533c8.107-8.533 21.76-8.533 29.867 0l256.852 256-30.293 30.293-256.425-256.427c-8.533-8.107-8.533-21.76 0-29.867zM788.902 487.253c0 5.547-2.56 11.093-6.4 14.933-8.533 8.107-21.76 8.107-30.293 0.427l-151.040-151.040c-8.107-8.533-8.107-21.76 0-30.293 8.533-8.107 21.76-8.533 30.293 0l151.040 151.040c4.267 3.84 6.4 9.387 6.4 14.933zM299.944 653.226c-8.533-8.533-8.533-22.187 0-30.293 8.107-8.533 21.76-8.533 29.867 0l75.52 75.093 75.518 76.373c4.267 3.84 6.4 9.387 6.4 14.933s-2.56 11.093-6.4 14.933c-3.84 4.267-9.813 6.4-14.933 6.4s-10.667-2.133-14.933-6.4l-151.038-151.040zM706.982 517.12l-211.2 211.199-120.745-120.747 211.198-211.199 120.747 120.747zM554.667 234.667h256c46.933 0 85.333-38.4 85.333-85.333v-85.333h-426.667v85.333c0 46.933 38.4 85.333 85.333 85.333zM512 106.667h341.333v42.667c0 23.467-19.2 42.667-42.667 42.667h-256c-23.467 0-42.667-19.2-42.667-42.667v-42.667z" />
</font>
</defs>
</svg>
